<svg width="408" height="552" viewBox="0 0 608 752" fill="none" xmlns="http://www.w3.org/2000/svg">
<g clip-path="url(#clip0_170_3212)">
<path d="M325.764 408.554C321.237 409.589 307.543 406.529 303.693 403.836C296.522 398.816 292.043 390.468 291.876 381.897C291.814 378.808 292.316 375.689 293.449 372.687C296.776 363.88 302.439 350.93 312.371 348.717C319.872 347.041 329.97 347.906 336.243 352.744C348.583 362.259 350.508 382.366 343.105 395.389C341.503 398.206 328.764 407.867 325.764 408.554ZM330.584 358.403C312.24 347.274 303.311 361.445 302.152 375.922C301.146 388.487 305.999 401.281 315.636 397.948C320.689 396.199 321.637 400.056 326.577 398.882C329.683 398.14 334.104 393.979 335.72 391.267C337.743 387.873 340.155 374.101 339.556 370.161C339.098 367.177 333.268 360.031 330.584 358.403Z" fill="#99B836"/>
<path d="M339.556 370.161C340.156 374.101 337.744 387.872 335.72 391.267C334.104 393.979 329.683 398.14 326.578 398.882C321.637 400.056 320.689 396.199 315.636 397.948C306 401.281 301.147 388.487 302.153 375.922C303.312 361.445 312.24 347.274 330.584 358.403C333.269 360.031 339.099 367.177 339.556 370.161Z" fill="#99B836"/>
<path d="M572.972 59.139C551.511 81.9026 545.096 115.025 544.391 146.312C543.897 168.269 545.641 190.887 538.307 211.586C529.883 235.356 510.668 253.373 492.672 271.03C477.34 286.074 461.669 302.037 441.389 309.096C424.215 315.067 405.366 314.028 387.785 318.666C382.645 320.021 377.581 321.868 372.285 322.304C367.741 322.678 352.967 324.87 346.56 323.038C348.539 321.562 350.969 319.189 351.166 318.687C352.96 314.053 353.821 309.543 354.747 304.592C356.77 293.805 358.964 283.043 361.765 272.43C367.279 251.538 375.205 230.98 388.319 213.621C406.27 189.858 432.337 173.902 456.634 156.692C497.957 127.419 535.525 93.2317 572.972 59.139Z" fill="#99B836"/>
<path d="M358.169 456.61C359.484 457.374 363.098 460.95 361.471 459.246C375.808 473.897 385.645 491.219 394.134 509.723C397.745 517.589 401.377 525.519 403.353 533.944C406.619 547.89 405.195 562.433 404.658 576.746C403.081 619.064 409.467 661.229 415.838 703.092C410.161 693.755 402.649 685.555 393.873 679.053C385.057 672.525 373.887 669.465 364.755 663.239C318.194 631.498 295.28 585.312 287.47 530.183C285.752 518.068 285.53 505.674 287.314 493.553C288.934 482.544 294.056 470.382 299.632 460.819C302.004 456.749 304.775 452.925 307.314 448.956C311.194 442.886 314.525 436.486 317.776 430.056C325.546 437.042 340.987 446.724 343.45 448.436C348.045 451.635 347.003 447.709 350.886 452.256C351.275 452.707 355.285 455.197 355.877 455.186C356.367 455.182 357.744 456.363 358.169 456.61ZM352.67 465.479L351.605 465.479L351.605 468.736L352.67 468.736L352.67 465.479ZM299.283 526.519L296.028 527.62C295.171 532.411 300.642 528.285 299.283 526.519Z" fill="#99B836"/>
<path d="M318.313 424.633C318.593 424.964 318.8 425.356 318.906 425.803C319.207 427.116 318.586 428.446 317.979 429.649C317.91 429.783 317.841 429.921 317.776 430.056C314.717 427.312 312.85 424.982 313.421 423.721C313.838 423.528 314.292 423.408 314.757 423.361C314.761 423.357 314.768 423.357 314.775 423.361C315.36 423.386 316.112 423.503 316.991 423.688C317.507 423.906 317.968 424.222 318.313 424.633Z" fill="#99B836"/>
<path d="M432.834 747.199C432.947 748.314 432.656 749.452 431.959 750.332C428.421 754.795 423.808 749.267 422.155 745.803C420.836 743.048 420.204 740.028 419.42 737.08C417.469 729.742 414.527 722.665 410.713 716.104C407.294 710.224 405.413 702.925 401.061 697.67C389.539 683.745 370.886 677.614 356.24 667.688C341.038 657.38 327.453 644.648 316.355 629.997C307.492 618.286 300.234 605.35 295.08 591.586C288.182 573.169 283.79 553.884 281.088 534.424C277.019 505.1 276.983 476.583 295.469 451.798C298.52 447.706 301.8 443.758 304.521 439.43C307.318 434.977 308.186 426.141 313.42 423.721C312.85 424.982 314.717 427.312 317.776 430.056C314.525 436.486 311.194 442.886 307.314 448.956C304.775 452.925 302.003 456.749 299.631 460.819C294.056 470.382 288.934 482.544 287.314 493.553C285.53 505.674 285.752 518.068 287.47 530.183C295.28 585.313 318.193 631.498 364.754 663.239C373.887 669.465 385.056 672.525 393.872 679.053C402.648 685.555 410.16 693.755 415.838 703.092C409.467 661.229 403.081 619.064 404.657 576.746C405.195 562.433 406.619 547.89 403.353 533.944C401.377 525.519 397.745 517.589 394.134 509.723C385.645 491.219 375.808 473.897 361.471 459.246C363.098 460.95 359.484 457.374 358.169 456.61C357.744 456.363 356.367 455.182 355.877 455.186C355.285 455.197 351.274 452.707 350.886 452.256C347.003 447.709 348.045 451.635 343.45 448.436C340.987 446.724 325.546 437.042 317.776 430.056C317.841 429.921 317.91 429.783 317.979 429.649C318.586 428.446 319.207 427.116 318.905 425.803C318.8 425.356 318.593 424.964 318.313 424.633C317.968 424.222 317.507 423.906 316.991 423.688C324.456 425.28 341.038 432.019 342.731 433.287C353.592 441.207 363.599 450.297 372.521 460.354C393.981 484.543 409.183 514.946 412.057 547.163C413.132 559.205 412.496 571.326 412.256 583.419C411.374 628.128 415.929 672.943 425.762 716.57C428.043 726.696 431.817 736.887 432.834 747.199ZM288.393 483.452L286.224 482.922L286.231 485.095L288.393 483.452Z" fill="#99B836"/>
<path d="M584.255 38.2144C586.532 36.1136 589.812 33.8856 592.439 35.5357C595.751 37.6183 593.699 42.7322 591.342 45.8616C576.027 66.2301 559.699 87.1183 554.356 112.041C548.645 138.668 556.248 166.684 551.366 193.475C546.234 221.661 527.919 245.493 508.895 266.912C492.549 285.318 474.296 302.39 451.895 313.119C427.139 324.979 396.51 328.708 369.325 329.028C365.747 329.072 353.066 329.58 350.152 327.498C348.431 326.269 345.699 325.306 344.311 324.245C344.766 324.252 345.612 323.747 346.56 323.038C352.968 324.87 367.741 322.678 372.285 322.304C377.581 321.868 382.645 320.021 387.785 318.666C405.366 314.028 424.215 315.067 441.389 309.096C461.669 302.037 477.34 286.074 492.673 271.03C510.668 253.373 529.884 235.356 538.307 211.586C545.641 190.887 543.898 168.269 544.392 146.312C545.097 115.025 551.511 81.9026 572.972 59.1389C535.525 93.2317 497.958 127.419 456.635 156.692C432.337 173.902 406.271 189.858 388.319 213.621C375.206 230.98 367.28 251.538 361.766 272.43C358.965 283.043 356.771 293.805 354.748 304.592C353.821 309.543 352.96 314.053 351.166 318.687C350.97 319.189 348.54 321.562 346.56 323.038C345.492 322.733 344.657 322.315 344.141 321.762C344.006 321.879 343.894 321.991 343.803 322.104C343.756 318.975 345.165 317.404 346.102 313.548C347.018 309.783 348.046 306.035 349.048 302.299C351.475 293.241 353.974 284.206 356.509 275.181C361.653 256.866 365.678 232.809 376.815 217.612C387.698 202.761 400.557 189.862 414.702 178.107C443.478 154.192 475.956 135.175 504.645 111.154C532.198 88.0851 557.85 62.5882 584.255 38.2144Z" fill="#99B836"/>
<path d="M200.294 38.8723C202.543 37.771 205.569 40.9004 204.254 42.5469C204.083 42.6414 203.931 42.7723 203.803 42.9394C203.858 42.9067 203.909 42.8704 203.956 42.834C204.072 42.7468 204.17 42.6487 204.254 42.5469C205.176 42.0053 206.604 42.4488 207.287 43.3719C208.093 44.466 208.17 45.9126 208.293 47.2647C209.615 61.9158 219.325 74.2554 228.631 85.6426C236.343 95.0745 243.561 103.321 254.774 108.305C266.082 113.331 277.906 117.566 288.015 124.875C299.446 133.14 307.994 144.894 314.347 157.492C339.229 206.861 344.239 266.716 314.394 315.3C313.882 316.132 311.724 319.803 309.901 322.089C309.857 321.948 309.814 321.806 309.763 321.664C309.298 320.37 308.579 319.305 307.714 318.375C308.313 315.78 309.142 313.094 309.269 312.305C310.983 301.685 315.76 291.998 319.32 281.938C334.583 238.787 326.69 189.073 301.488 151.269C294.877 141.354 286.9 131.977 276.464 126.234C268.701 121.963 259.922 119.888 251.952 116.014C227.847 104.296 216.375 78.5079 203.549 56.5656C201.308 60.5746 200.516 65.216 199.953 69.7739C198.26 83.4909 198.231 97.3824 198.126 111.194L197.973 111.194L197.973 112.263L198.119 112.263L198.097 114.803C197.628 164.703 197.261 220.942 237.447 256.713C253.194 270.732 273.946 278.928 287.002 295.986C291.48 301.845 294.946 308.681 300.812 313.148C303.104 314.893 305.778 316.299 307.714 318.375C307.104 321.014 306.733 323.558 307.58 323.921C308.059 324.128 308.931 323.303 309.901 322.089C310.446 324.056 309.966 326.204 308.444 327.581C306.719 329.152 304.764 328.723 303.09 327.952C296.45 324.899 293.609 317.237 290.14 310.808C274.295 281.433 237.32 270.311 216.197 244.476C205.816 231.773 199.746 215.995 196.419 199.93C193.091 183.861 192.361 167.385 191.642 150.997C190.53 125.653 189.426 100.127 193.12 75.0295C194.548 65.3142 195.935 55.7188 196.974 45.9344C197.261 43.2266 197.85 40.0681 200.294 38.8723Z" fill="#99B836"/>
<path d="M204.254 42.5469C204.171 42.6487 204.073 42.7469 203.956 42.8341C203.909 42.8704 203.858 42.9068 203.804 42.9395C203.931 42.7723 204.083 42.6414 204.254 42.5469Z" fill="#99B836"/>
<path d="M199.954 69.7738C200.517 65.216 201.309 60.5746 203.55 56.5656C216.376 78.5079 227.847 104.295 251.952 116.014C259.922 119.888 268.702 121.963 276.464 126.234C286.901 131.977 294.877 141.354 301.489 151.269C326.691 189.073 334.584 238.787 319.32 281.938C315.761 291.998 310.984 301.685 309.269 312.305C309.142 313.094 308.314 315.78 307.715 318.375C305.779 316.299 303.105 314.893 300.813 313.148C294.946 308.681 291.481 301.845 287.002 295.986C273.947 278.928 253.195 270.732 237.448 256.713C197.262 220.942 197.629 164.703 198.097 114.803L198.119 112.263L200.142 112.263L200.142 111.194L198.126 111.194C198.232 97.3824 198.261 83.4909 199.954 69.7738ZM202.326 85.0102L200.157 82.8403L200.157 85.0175L202.326 85.0102Z" fill="#99B836"/>
<path d="M200.157 82.8404L202.326 85.0103L200.153 85.0176L200.157 82.8404Z" fill="#99B836"/>
<path d="M198.126 111.194L200.142 111.194L200.142 112.263L198.119 112.263C198.123 111.906 198.126 111.55 198.126 111.194Z" fill="#99B836"/>
<path d="M197.974 111.194L198.126 111.194C198.126 111.55 198.123 111.906 198.119 112.263L197.974 112.263L197.974 111.194Z" fill="#99B836"/>
<path d="M44.8139 269.74C45.2171 267.992 47.2295 267.824 48.8278 267.963C56.7974 268.653 64.0987 272.288 71.4181 275.719C74.8363 277.318 78.2581 278.874 81.7525 280.062C98.52 285.772 118.488 290.174 136.211 287.168C147.551 285.245 157.853 280.52 168.899 277.7C184.236 273.785 200.516 274.516 215.74 278.587C231.051 282.679 245.842 290.472 256.783 302.088C262.319 307.965 267.121 314.922 269.675 322.624C272.378 330.765 273.097 339.448 276.261 347.455C278.033 351.941 280.547 356.128 282.004 360.725C283.286 364.767 281.477 387.727 278.898 391.493C278.055 390.217 276.41 389.206 274.844 388.937C272.16 388.472 269.145 388.897 266.951 387.28C266.962 386.731 276.021 372.894 276.188 371.986C277.409 365.334 273.217 358.348 270.547 352.566C267.318 345.562 266.26 338.507 264.8 330.998C256.427 287.873 201.53 279.586 166.073 286.317C156.16 288.2 146.378 290.697 136.454 292.511C127.714 294.11 116.472 292.783 108.335 296.244C131.532 305.948 148.855 322.002 165.227 340.695C178.562 355.92 191.827 371.771 209.158 382.213C226.488 392.656 249.101 396.803 266.951 387.28C266.867 391.856 277.703 393.23 278.894 391.496C278.894 391.496 278.894 391.493 278.898 391.493C279.588 392.539 279.737 393.768 278.854 394.909C278.233 395.712 277.289 396.203 276.286 396.348C267.506 397.617 258.621 398.184 249.754 398.035C236.249 397.81 222.551 395.858 210.328 390.111C186.524 378.92 171.584 355.281 153.011 336.65C126.178 309.728 91.0408 292.852 55.8566 278.496C51.9916 276.918 47.9778 275.275 45.3515 271.946C44.8575 271.325 44.6359 270.51 44.8139 269.74Z" fill="#99B836"/>
<path d="M166.073 286.317C201.53 279.586 256.427 287.873 264.8 330.998C266.26 338.507 267.317 345.562 270.547 352.566C273.217 358.348 277.409 365.334 276.188 371.986C276.021 372.894 266.962 386.731 266.951 387.28C249.101 396.803 226.488 392.656 209.158 382.213C191.827 371.771 178.562 355.921 165.227 340.695C148.855 322.002 131.532 305.948 108.335 296.244C116.472 292.783 127.714 294.11 136.454 292.511C146.378 290.697 156.16 288.2 166.073 286.317Z" fill="#99B836"/>
<path d="M307.714 318.375C308.579 319.305 309.298 320.37 309.763 321.664C309.814 321.806 309.857 321.948 309.901 322.089C308.931 323.303 308.059 324.128 307.58 323.921C306.733 323.558 307.104 321.014 307.714 318.375Z" fill="#99B836"/>
<path d="M343.803 322.104C343.894 321.991 344.006 321.879 344.141 321.762C344.656 322.315 345.492 322.733 346.56 323.038C345.612 323.747 344.765 324.252 344.311 324.245C344.188 324.15 344.075 324.056 343.977 323.958C343.865 323.274 343.81 322.664 343.803 322.104Z" fill="#99B836"/>
<path d="M343.977 323.958C343.385 323.394 343.218 322.795 343.803 322.104C343.81 322.664 343.865 323.274 343.977 323.958Z" fill="#99B836"/>
<path d="M343.978 323.961L343.978 323.958C344.076 324.056 344.188 324.15 344.312 324.245C344.126 324.241 344.01 324.154 343.978 323.961Z" fill="#99B836"/>
<path d="M384.283 367.806C400.622 347.117 429.841 338.82 455.566 344.533C477.06 349.309 496.214 362.579 514.997 373.567C530.323 382.53 545.899 391.1 561.962 398.678C569.986 402.462 578.126 406.002 586.401 409.208C591.294 411.105 596.092 413.318 601.229 414.434C602.871 414.794 604.56 415.281 605.893 416.27C606.165 416.473 606.423 416.699 606.663 416.949C608.069 418.407 608.548 420.94 607.19 422.449C606.746 422.939 606.162 423.277 605.631 423.674C604.018 424.884 603.488 426.85 601.853 427.901C600.157 428.995 597.48 429.071 595.544 429.22C591.305 429.554 587.087 429.002 582.852 429.053C573.76 429.162 564.653 428.951 555.572 429.587C540.287 430.656 525.749 433.574 511.783 439.989C492.836 448.691 476.642 464.963 455.882 466.9C438.882 468.485 422.623 459.925 408.569 450.221C400.433 444.605 392.528 438.437 385.888 431.07C380.062 424.604 372.935 416.688 372.379 407.572C372.034 401.935 374.297 396.516 375.623 391.024C377.712 382.377 378.616 374.977 384.283 367.806ZM460.543 354.83C446.957 350.89 432.275 348.804 418.522 353.165C408.875 356.222 399.427 361.943 392.772 369.634C388.18 374.944 385.601 381.581 383.825 388.29C382.332 393.917 379.459 400.056 380.251 405.991C380.305 406.395 380.378 406.798 380.469 407.201C380.984 409.528 382.132 411.657 383.338 413.715C393.077 430.354 407.284 444.416 424.974 452.373C434.022 456.443 443.986 459.569 454.004 459.373C463.75 459.187 471.037 454.808 478.393 448.792C485.77 442.759 495.436 438.877 504.111 435.057C513.541 430.906 523.399 427.752 533.454 425.513C553.545 421.042 574.345 420.228 594.817 421.958C595.304 422.002 595.802 421.907 596.216 421.645C599.605 419.516 584.577 416.248 582.925 415.525C561.824 406.293 541.296 395.814 520.984 384.976C501.412 374.537 481.909 361.024 460.543 354.83Z" fill="#99B836"/>
<path d="M418.522 353.165C432.275 348.804 446.957 350.89 460.543 354.83C481.909 361.024 501.412 374.537 520.984 384.976C541.296 395.814 561.824 406.293 582.925 415.525C584.577 416.248 599.605 419.516 596.216 421.645C595.802 421.907 595.304 422.002 594.817 421.958C574.345 420.228 553.545 421.042 533.454 425.513C523.399 427.752 513.541 430.906 504.111 435.057C495.437 438.877 485.77 442.759 478.393 448.792C471.037 454.808 463.75 459.187 454.004 459.373C443.986 459.569 434.022 456.443 424.974 452.373C407.284 444.416 393.077 430.354 383.338 413.715C382.132 411.657 380.984 409.528 380.469 407.201C380.378 406.798 380.305 406.395 380.251 405.991C379.459 400.056 382.332 393.917 383.825 388.29C385.601 381.581 388.18 374.944 392.772 369.634C399.427 361.943 408.875 356.222 418.522 353.165Z" fill="#99B836"/>
<path d="M278.894 391.496C277.703 393.23 266.867 391.856 266.951 387.28C269.145 388.897 272.16 388.472 274.844 388.937C276.41 389.206 278.055 390.217 278.898 391.493C278.894 391.493 278.894 391.496 278.894 391.496Z" fill="#99B836"/>
<path d="M237.596 420.751C242.707 420.708 247.858 420.137 252.962 420.591C257.695 421.013 261.469 422.921 265.792 424.397C265.541 424.579 265.636 425.451 264.913 425.992C230.916 428.508 196.495 429.271 163.505 437.845C130.511 446.419 98.3419 463.956 80.1069 492.771C71.5052 506.361 67.1462 521.728 59.696 535.816C51.5338 551.252 39.1653 566.114 23.4911 574.227C25.1439 573.373 27.5014 578.091 30.9886 576.531C65.468 561.113 102.505 553.8 139.538 547.56C162.277 543.732 185.837 539.48 204.704 526.217C221.654 514.303 233.183 496.192 242.627 477.742C250.935 461.51 250.216 436.969 264.913 425.992C265.915 425.92 266.511 425.571 266.344 424.582C268.055 425.869 269.199 424.8 268.131 426.316C262.991 433.607 261.48 450.032 257.808 457.646C252.577 468.492 248.69 479.77 242.609 490.253C239.471 495.665 236.042 500.909 232.275 505.903C230.437 508.338 220.444 517.112 220.444 519.599C202.376 537.819 181.217 547.429 156.698 553.564C154.257 554.011 151.805 554.396 149.349 554.727C105.974 560.543 80.2231 562.934 38.8965 580.482C29.6591 584.407 15.3217 594.399 5.3905 596.115C0.424911 596.972 -1.68193 594.203 1.52918 589.729C2.32469 588.624 3.23281 587.617 4.20632 586.672C5.86999 585.058 7.72619 583.622 9.54606 582.176C24.8315 570.051 37.8285 555.934 47.8905 539.171C58.8496 520.914 65.5697 500.36 77.4842 482.653C91.5528 461.746 113.253 449.708 136.04 440.415C157.45 431.688 180.058 426.014 202.975 423.092C214.458 421.627 226.023 420.857 237.596 420.751ZM20.3672 581.565L18.1986 581.031L18.2059 583.204L20.3672 581.565Z" fill="#99B836"/>
<path d="M314.775 423.361C315.531 423.288 316.312 423.405 316.991 423.688C316.112 423.503 315.36 423.386 314.775 423.361Z" fill="#99B836"/>
<path d="M313.421 423.721C313.552 423.437 314.02 423.328 314.758 423.361C314.293 423.408 313.839 423.528 313.421 423.721Z" fill="#99B836"/>
<path d="M265.792 424.397C265.894 424.32 266.05 424.36 266.344 424.582C266.159 424.52 265.974 424.459 265.792 424.397Z" fill="#99B836"/>
<path d="M265.792 424.397C265.974 424.459 266.159 424.52 266.344 424.582C266.511 425.571 265.916 425.92 264.913 425.992C265.636 425.451 265.542 424.579 265.792 424.397Z" fill="#99B836"/>
<path d="M163.505 437.845C196.495 429.271 230.916 428.508 264.913 425.992C250.216 436.969 250.935 461.51 242.628 477.742C233.183 496.192 221.654 514.303 204.704 526.217C185.837 539.48 162.277 543.732 139.538 547.56C102.505 553.8 65.4681 561.113 30.9886 576.531C27.5015 578.091 25.144 573.373 23.4912 574.227C39.1653 566.114 51.5339 551.252 59.6961 535.816C67.1463 521.728 71.5053 506.361 80.107 492.771C98.342 463.956 130.511 446.419 163.505 437.845Z" fill="#99B836"/>
<path d="M351.605 465.479L351.605 468.736L352.67 468.736L352.67 465.479L351.605 465.479Z" fill="#99B836"/>
<path d="M268.789 490.554L273.141 491.652L273.141 493.811L271.528 493.807L268.789 490.554Z" fill="#99B836"/>
<path d="M296.028 527.62L299.283 526.519C300.641 528.285 295.171 532.411 296.028 527.62Z" fill="#99B836"/>
<path d="M396.271 696.027L398.439 695.493L398.432 697.666L396.271 696.027Z" fill="#99B836"/>
</g>
<defs>
<clipPath id="clip0_170_3212">
<rect width="752" height="608" fill="white" transform="translate(0 752) rotate(-90)"/>
</clipPath>
</defs>
</svg>
