<?xml version="1.0" encoding="UTF-8"?>
<svg id="Layer_1" xmlns="http://www.w3.org/2000/svg" baseProfile="tiny" version="1.2" viewBox="0 0 841.89 595.28">
  <!-- Generator: Adobe Illustrator 29.1.0, SVG Export Plug-In . SVG Version: 2.1.0 Build 142)  -->
  <path d="M381.28,255.56c-6.42-4.89,6.28-38.94,23.5-60.95,4.18-5.34,8.91-10.28,18.37-20.15,10.64-11.1,16.05-16.69,20.74-18.97,12-5.81,27.5-4.45,39.12,1.78,25.45,13.64,25,46.71,24.89,50.38-.17,5.77-.76,19.26-10.67,31.41-1.11,1.36-16.04,19.17-34.38,17.19-13.02-1.41-15.36-11.45-28.45-10.67-8.41.5-8.92,4.74-20.15,5.33-7.16.38-9.51-1.21-18.97-.59-9.19.6-12.32,6.54-14.02,5.24Z" fill="#a2137d"/>
  <path d="M391.34,263.32c.85-4.85,16.98-9.77,27.79-6.93,5.57,1.47,6.2,3.61,11.92,4.36,7.73,1.02,9.88-2.46,17.38-2.48,9.67-.03,10.17,5.74,19.37,6.46,11.24.87,14.22-7.45,24.84-6.95,10.84.51,18.44,9.69,19.87,11.42,15.33,18.52,2.26,46.6,1.49,48.18-3.09,6.39-8.72,18.05-20.86,21.36-12.33,3.36-26.54-3.23-33.28-12.42-5.19-7.07-3.4-12.22-10.43-19.37-4.54-4.62-6.47-3.68-14.9-8.94-11.3-7.05-10.52-10.42-25.33-22.35-11.03-8.89-18.38-9.34-17.86-12.34Z" fill="#a2137d"/>
  <path d="M387.85,265.5c3.46-.5,11.34,4.88,22.83,19.59,5.58,7.14,9.34,11.96,15.89,16.89,9.42,7.09,14.72,6.98,24.84,15.89,3.69,3.25,2.71,3.02,8.44,8.44,5.37,5.07,10.16,8.99,19.15,15.87,19.28,14.77,18.72,13.22,20.36,15.53,7.95,11.2,5.41,25.66,3.8,34.86-1.91,10.86-5.07,28.89-17.95,34.17-8.68,3.56-17.33-.51-33.83-8.28-13.14-6.19-22.11-10.41-26.92-20.02-2.5-5-2.81-9.32-7.59-13.46-4.9-4.25-8.06-2.73-14.15-5.87-12.19-6.29-16.48-21.12-17.26-23.82-2.02-6.97-.29-7.99-3.11-20.36-1.91-8.36-2.9-8.8-3.45-13.12-1.18-9.33,2.51-14.86,6.21-25.2,7.64-21.32-1.44-30.53,2.73-31.13Z" fill="#a2137d"/>
  <path d="M383.15,273.28h0c.35,3.26.41,8.02-1.4,13.16-2.07,5.9-4.81,7.19-7.63,11.77-5.93,9.62-4.42,21.07-2.83,33.14,1.28,9.72,2.7,8.87,3.49,17,1.41,14.43-2.21,25.8-3.05,28.34-5.85,17.55-17.7,27.54-23.98,32.7-7.06,5.8-16.8,13.8-30.74,14.61-4.27.25-11.58.67-17.88-3.71-4.97-3.45-4.53-6.56-10.68-11.99-6.73-5.93-9.35-4.06-14.39-8.72-6.63-6.13-3.34-10.51-10.03-22.46-6.08-10.86-10.74-10.71-12.86-19.4-.49-1.98-2.63-10.76,1.96-17.22,3.11-4.38,6.6-3.86,16.35-8.94,8.86-4.61,8.18-6.19,15.7-10.25,11.25-6.07,14.58-3.53,25.07-8.28,10.11-4.58,10.84-8.68,22.24-17,6.23-4.55,15.67-10.38,29-15.04l21.67-7.71Z" fill="#a2137d"/>
  <path d="M376.47,256.39c-.81-3.74-6.63-3.58-8.86-8.95-1.6-3.85.47-6.15,1.3-12.77.55-4.33,1.83-14.53-3.39-20.32-2.84-3.16-8.58-3.93-20.06-5.47-7.79-1.05-11.74-1.55-14.59-.26-4.88,2.19-4.66,5.79-11.73,16.68-5.91,9.11-7.97,9.54-11.99,17.46-3.19,6.29-5.24,10.49-3.91,15.11.98,3.4,3.7,5.7,9.12,10.16,5.12,4.22,8.25,6.8,12.25,8.6,15.69,7.07,33.34-3.04,38.04-5.73,2.33-1.34,15.08-8.64,13.81-14.5Z" fill="#a2137d"/>
  <path d="M394.11,262.31c0,6.06-4.91,10.96-10.96,10.96s-10.96-4.91-10.96-10.96,4.91-10.96,10.96-10.96,10.96,4.91,10.96,10.96Z"/>
</svg>