<?xml version="1.0" encoding="UTF-8"?>
<svg id="Layer_1" data-name="Layer 1" xmlns="http://www.w3.org/2000/svg" xmlns:xlink="http://www.w3.org/1999/xlink" viewBox="0 0 1368 778">
  <defs>
    <style>
      .cls-1, .cls-2 {
        fill: none;
      }

      .cls-3 {
        mask: url(#mask);
      }

      .cls-4 {
        mask: url(#mask-1);
      }

      .cls-2 {
        stroke: rgba(119, 176, 159, .6);
        stroke-miterlimit: 8.72;
        stroke-width: 3.49px;
      }

      .cls-5 {
        fill: #fff;
        stroke: #fff;
        stroke-miterlimit: 3.49;
        stroke-width: .87px;
      }

      .cls-6 {
        clip-path: url(#clippath);
      }
    </style>
    <clipPath id="clippath">
      <rect class="cls-1" x="-2.75" width="1370.75" height="778"/>
    </clipPath>
    <mask id="mask" x="-663.41" y="-1083.15" width="2519.22" height="2775.72" maskUnits="userSpaceOnUse">
      <g id="mask0_314_202" data-name="mask0 314 202">
        <path class="cls-5" d="M.44,834.55V-30.67h1388.07v865.22H.44Z"/>
      </g>
    </mask>
    <mask id="mask-1" x="-677.19" y="-1550.23" width="2533" height="3758.22" maskUnits="userSpaceOnUse">
      <g id="mask1_314_202" data-name="mask1 314 202">
        <path class="cls-5" d="M483.93-1364.78c62.23-78.03,134.19-132.53,206.99-184.83,192.53,311.22,386.52,620.26,580.5,929.28l.04.07C1465.48-311.2,1659.48-2.15,1852.02,309.08c-121.77,150.37-238.5,299.83-330.92,493.46-22.33,46.81-43.88,95.24-65.44,143.96-1.73,3.92-3.46,7.83-5.2,11.75-19.83,44.85-39.74,89.85-60.35,133.98-44.84,95.99-93,187.83-151.05,264.94-56.75,75.39-123.68,127.26-193.24,172.22-27.96,18.07-56.33,35.02-84.65,51.94-6.91,4.13-13.82,8.26-20.72,12.4-35.15,21.09-70.02,42.54-103.65,66.41-157.25,111.62-261.16,309.19-366.26,509.03-6.65,12.64-13.3,25.29-19.97,37.93-26.73-43.19-53.45-86.4-80.17-129.59-26.85-43.41-53.69-86.8-80.54-130.2-45.56-73.63-96.03-135.02-147.66-197.81-4.19-5.1-8.39-10.2-12.59-15.32-80.97-98.65-152.8-220.69-222.73-339.52-13.55-23.03-27.03-45.93-40.49-68.52-30.73-51.56-55.94-108.93-81.21-166.4-10.55-23.99-21.1-48-32.07-71.61-30.76-66.25-67.35-124.81-104.02-183.49-6.66-10.65-13.32-21.31-19.95-32.02-101.94-164.79-203.88-329.59-305.83-494.35,6.77-13.32,13.51-26.65,20.25-39.98,103.15-203.94,205.06-405.43,365.21-512.75l-.2-.49.2.49c33.64-22.55,68.65-42.49,104.01-62.08,6.95-3.85,13.91-7.68,20.87-11.52,28.49-15.69,57.07-31.44,85.22-48.4,70.06-42.22,137.42-91.98,193.88-167.27,58.94-78.61,99.44-180.38,133.67-288.11,16.02-50.43,30.67-102.17,45.2-153.47.99-3.5,1.98-7,2.97-10.49,15.5-54.72,30.96-108.8,47.88-160.08,35.96-108.99,78.76-210.3,141.47-288.92Z"/>
      </g>
    </mask>
  </defs>
  <g class="cls-6">
    <g class="cls-3">
      <g class="cls-4">
        <g>
          <path class="cls-2" d="M999.97-1050.91c-135.73,97.49-251.79,207.14-326.41,409.49-81.83,221.85-122.81,485.92-245.98,668.54"/>
          <path class="cls-2" d="M1019.05-1020.11c-135.73,97.49-251.79,207.14-326.41,409.49-81.83,221.85-122.81,485.92-245.98,668.54"/>
          <path class="cls-2" d="M1038.1-989.28c-135.73,97.49-251.79,207.14-326.41,409.49-81.83,221.85-122.81,485.92-245.98,668.54"/>
          <path class="cls-2" d="M1057.17-958.46c-135.73,97.49-251.79,207.14-326.41,409.49-81.83,221.85-122.81,485.92-245.98,668.54"/>
          <path class="cls-2" d="M1076.23-927.63c-135.73,97.49-251.79,207.14-326.41,409.49-81.83,221.85-122.81,485.92-245.98,668.54"/>
          <path class="cls-2" d="M1095.3-896.81c-135.73,97.49-251.79,207.14-326.41,409.49C687.06-265.48,646.08-1.41,522.91,181.21"/>
          <path class="cls-2" d="M1114.37-866.01c-135.73,97.49-251.79,207.14-326.41,409.49-81.83,221.85-122.81,485.92-245.98,668.54"/>
          <path class="cls-2" d="M1133.42-835.19c-135.73,97.49-251.79,207.14-326.41,409.49-81.83,221.85-122.81,485.92-245.98,668.54"/>
          <path class="cls-2" d="M1152.5-804.37c-135.73,97.49-251.79,207.14-326.41,409.49-81.83,221.85-122.81,485.92-245.98,668.54"/>
          <path class="cls-2" d="M1171.57-773.54c-135.73,97.49-251.79,207.14-326.41,409.49-81.83,221.85-122.81,485.92-245.98,668.54"/>
          <path class="cls-2" d="M1190.62-742.72c-135.73,97.49-251.79,207.14-326.41,409.49-81.83,221.85-122.81,485.92-245.98,668.54"/>
          <path class="cls-2" d="M1209.69-711.92c-135.73,97.49-251.79,207.14-326.41,409.49-81.83,221.85-122.81,485.92-245.98,668.54"/>
          <path class="cls-2" d="M1228.77-681.09c-135.73,97.49-251.79,207.14-326.41,409.49-81.83,221.85-122.81,485.92-245.98,668.54"/>
          <path class="cls-2" d="M1247.82-650.27c-135.73,97.49-251.79,207.14-326.41,409.49-81.83,221.85-122.81,485.92-245.98,668.54"/>
          <path class="cls-2" d="M1267.14-619.17c-135.53,98.53-251.08,207.76-325.95,409.98-82.08,221.65-124.3,484.38-246.71,667.77"/>
          <path class="cls-2" d="M1288.09-586.3c-134.1,101.35-248.69,211.34-324.36,411.74-83.27,220.51-128.69,480.16-250.19,663.96"/>
          <path class="cls-2" d="M1310.53-551.79c-131.57,104.61-245.38,217.65-322.02,414.28-85.21,218.59-134.61,474.59-255.9,657.73"/>
          <path class="cls-2" d="M1334.01-516.15c-128.19,108.81-241.27,225.43-319.15,417.4-87.67,216.09-141.6,468.09-263.18,649.78"/>
          <path class="cls-2" d="M1358.12-479.84c-124.3,113.31-236.78,234.16-315.98,420.88-90.45,213.22-149.21,460.98-271.38,640.83"/>
          <path class="cls-2" d="M1382.41-443.3c-120.25,117.91-232.18,242.98-312.72,424.44-93.31,210.23-156.99,453.61-279.88,631.53"/>
          <path class="cls-2" d="M1406.47-407.04c-116.38,122.41-227.7,251.19-309.56,427.88-96.06,207.34-164.5,446.39-288.02,622.63"/>
          <path class="cls-2" d="M1429.87-371.49c-112.99,126.58-223.66,258.14-306.74,430.97-98.44,204.79-171.3,439.74-295.18,614.85"/>
          <path class="cls-2" d="M1452.18-337.14c-110.34,130.19-220.33,263.3-304.47,433.44-100.29,202.82-176.92,434.03-300.69,608.82"/>
          <path class="cls-2" d="M1472.97-304.43c-108.69,132.99-218.07,266.22-302.96,435.09-101.36,201.65-180.95,429.71-303.92,605.28"/>
          <path class="cls-2" d="M1492.19-273.44c-108.36,133.78-217.53,266.66-302.61,435.47-101.53,201.46-182.04,428.45-304.43,604.71"/>
          <path class="cls-2" d="M1511.26-242.61c-108.36,133.78-217.53,266.66-302.61,435.47-101.53,201.46-182.04,428.45-304.43,604.71"/>
          <path class="cls-2" d="M1530.33-211.79c-108.36,133.78-217.52,266.66-302.6,435.47-101.53,201.46-182.04,428.45-304.43,604.71"/>
          <path class="cls-2" d="M1549.39-180.99c-108.36,133.78-217.53,266.66-302.61,435.47-101.53,201.46-182.04,428.45-304.43,604.71"/>
          <path class="cls-2" d="M1568.46-150.17c-108.36,133.78-217.53,266.66-302.61,435.47-101.53,201.46-182.04,428.45-304.43,604.71"/>
          <path class="cls-2" d="M1587.53-119.34c-108.36,133.78-217.53,266.66-302.61,435.47-101.53,201.46-182.04,428.45-304.43,604.71"/>
          <path class="cls-2" d="M1606.59-88.52c-108.36,133.78-217.53,266.66-302.61,435.47-101.53,201.46-182.04,428.45-304.43,604.71"/>
          <path class="cls-2" d="M1625.66-57.69c-108.36,133.78-217.53,266.66-302.61,435.47-101.53,201.46-182.04,428.45-304.43,604.71"/>
          <path class="cls-2" d="M1644.71-26.89c-108.36,133.78-217.53,266.66-302.61,435.47-101.53,201.46-182.04,428.45-304.43,604.71"/>
          <path class="cls-2" d="M1663.79,3.93c-108.36,133.78-217.53,266.66-302.61,435.47-101.53,201.46-182.04,428.45-304.43,604.71"/>
          <path class="cls-2" d="M1682.86,34.75c-108.36,133.78-217.53,266.66-302.61,435.47-101.53,201.46-182.04,428.45-304.43,604.71"/>
          <path class="cls-2" d="M1701.91,65.58c-108.36,133.78-217.53,266.66-302.61,435.47-101.53,201.46-182.04,428.45-304.43,604.71"/>
          <path class="cls-2" d="M1720.98,96.4c-108.36,133.78-217.53,266.66-302.61,435.47-101.53,201.46-182.04,428.45-304.43,604.71"/>
          <path class="cls-2" d="M1740.06,127.2c-108.36,133.78-217.53,266.66-302.61,435.47-101.53,201.46-182.04,428.45-304.43,604.71"/>
          <path class="cls-2" d="M1759.11,158.02c-108.36,133.78-217.53,266.66-302.61,435.47-101.53,201.46-182.04,428.45-304.43,604.71"/>
          <path class="cls-2" d="M1778.18,188.85c-108.36,133.78-217.53,266.66-302.61,435.47-101.53,201.46-182.04,428.45-304.43,604.71"/>
          <path class="cls-2" d="M1797.25,219.67c-108.36,133.78-217.53,266.66-302.61,435.47-101.53,201.46-182.04,428.45-304.43,604.71"/>
          <path class="cls-2" d="M1816.31,250.5c-108.36,133.78-217.53,266.66-302.61,435.47-101.53,201.46-182.04,428.45-304.43,604.72"/>
          <path class="cls-2" d="M1835.38,281.3c-108.36,133.78-217.53,266.66-302.61,435.47-101.53,201.46-182.04,428.45-304.43,604.71"/>
          <path class="cls-2" d="M1854.45,312.12c-108.36,133.78-217.53,266.66-302.61,435.47-101.53,201.46-182.04,428.44-304.43,604.72"/>
          <path class="cls-2" d="M122.52-465.99C-1.86-302.73-167.92-256.03-313.44-150.54c-151.52,109.87-248.92,316.82-348.42,512.64"/>
          <path class="cls-2" d="M141.59-435.17C17.22-271.9-148.85-225.21-294.36-119.71-445.88-9.84-543.28,197.1-642.78,392.92"/>
          <path class="cls-2" d="M160.66-404.35C36.28-241.08-129.78-194.39-275.29-88.89c-151.52,109.87-248.92,316.82-348.42,512.64"/>
          <path class="cls-2" d="M179.72-373.55C55.34-210.28-110.73-163.59-256.24-58.09c-151.52,109.87-248.92,316.82-348.42,512.64"/>
          <path class="cls-2" d="M198.79-342.72C74.41-179.46-91.65-132.76-237.17-27.26c-151.52,109.87-248.92,316.82-348.42,512.64"/>
          <path class="cls-2" d="M217.85-311.9C93.47-148.63-72.6-101.94-218.11,3.56c-151.52,109.87-248.92,316.82-348.42,512.64"/>
          <path class="cls-2" d="M236.92-281.07C112.54-117.81-53.53-71.11-199.04,34.38c-151.52,109.87-248.92,316.82-348.42,512.64"/>
          <path class="cls-2" d="M255.99-250.25C131.61-86.98-34.46-40.29-179.97,65.21c-151.52,109.87-248.92,316.82-348.42,512.64"/>
          <path class="cls-2" d="M275.04-219.45C150.67-56.19-15.4-9.49-160.91,96.01c-151.52,109.87-248.92,316.82-348.42,512.64"/>
          <path class="cls-2" d="M294.11-188.63C169.74-25.36,3.67,21.33-141.84,126.83c-151.52,109.87-248.92,316.82-348.42,512.64"/>
          <path class="cls-2" d="M313.19-157.8C188.81,5.46,22.74,52.16-122.77,157.65c-151.52,109.87-248.92,316.82-348.42,512.64"/>
          <path class="cls-2" d="M332.24-126.98C207.86,36.29,41.8,82.98-103.71,188.48c-151.52,109.87-248.92,316.82-348.42,512.64"/>
          <path class="cls-2" d="M351.31-96.15C226.94,67.11,60.87,113.8-84.64,219.3c-151.52,109.87-248.92,316.82-348.42,512.64"/>
          <path class="cls-2" d="M370.38-65.36C246.01,97.91,79.94,144.6-65.57,250.1c-151.52,109.87-248.92,316.82-348.42,512.64"/>
          <path class="cls-2" d="M389.44-34.53C265.06,128.73,99,175.43-46.52,280.93c-151.52,109.87-248.92,316.82-348.42,512.64"/>
          <path class="cls-2" d="M408.51-3.71C284.13,159.56,118.07,206.25-27.45,311.75c-151.52,109.87-248.92,316.82-348.42,512.64"/>
          <path class="cls-2" d="M427.56,27.12C303.19,190.38,137.12,237.07-8.39,342.57c-151.52,109.87-248.92,316.82-348.42,512.64"/>
          <path class="cls-2" d="M446.64,57.94C322.26,221.2,156.19,267.9,10.68,373.4c-151.52,109.87-248.92,316.82-348.42,512.64"/>
          <path class="cls-2" d="M465.71,88.74C341.33,252.01,175.26,298.7,29.75,404.2c-151.52,109.87-248.92,316.82-348.42,512.64"/>
          <path class="cls-2" d="M484.76,119.56c-124.38,163.27-290.45,209.96-435.96,315.46-151.52,109.87-248.92,316.82-348.42,512.64"/>
          <path class="cls-2" d="M503.83,150.39c-124.46,163.19-290.74,210.4-436.29,316.05-151.42,109.92-248.74,316.45-348.2,512.22"/>
          <path class="cls-2" d="M522.91,181.21c-125.05,163.69-292.28,213.05-438.35,319.86-150.89,110.34-247.95,314.89-347.23,510.44"/>
          <path class="cls-2" d="M541.96,212.03c-126.09,165.07-294.75,217.47-441.85,326.33-150.05,111.04-246.79,312.59-345.8,507.77"/>
          <path class="cls-2" d="M561.03,242.83c-127.46,167.1-297.9,223.18-446.4,334.76-148.96,111.93-245.37,309.8-344,504.45"/>
          <path class="cls-2" d="M580.11,273.66c-129.03,169.52-301.47,229.66-451.58,344.33-147.71,112.84-243.82,306.73-341.99,500.75"/>
          <path class="cls-2" d="M599.16,304.48c-130.61,172.14-305.21,236.48-457.02,354.29C-4.22,772.33-100.13,962.51-197.74,1155.71"/>
          <path class="cls-2" d="M618.23,335.31c-132.23,174.64-308.77,242.98-462.25,363.93-145.08,114.32-240.77,300.75-337.86,493.21"/>
          <path class="cls-2" d="M637.29,366.13c-133.68,176.79-311.96,248.77-466.89,372.48-143.93,114.94-239.43,298.08-336.03,489.84"/>
          <path class="cls-2" d="M656.36,396.93c-134.85,178.37-314.47,253.29-470.52,379.21-143,115.39-238.34,295.88-334.54,487.11"/>
          <path class="cls-2" d="M675.43,427.75c-135.58,179.09-316.05,256.16-472.73,383.29-142.39,115.56-237.62,294.43-333.52,485.22"/>
          <path class="cls-2" d="M694.48,458.58c-135.74,179.06-316.4,256.75-473.19,384.13-142.24,115.58-237.4,293.98-333.24,484.68"/>
          <path class="cls-2" d="M713.56,489.4c-135.74,179.06-316.4,256.75-473.19,384.13C98.12,989.11,2.96,1167.5-92.88,1358.21"/>
          <path class="cls-2" d="M732.63,520.2c-135.74,179.06-316.4,256.75-473.19,384.12-142.24,115.58-237.4,293.98-333.24,484.68"/>
          <path class="cls-2" d="M751.68,551.02c-135.74,179.06-316.4,256.75-473.19,384.13-142.24,115.58-237.4,293.97-333.24,484.68"/>
          <path class="cls-2" d="M770.75,581.85c-135.75,179.06-316.4,256.75-473.19,384.13-142.24,115.58-237.4,293.97-333.24,484.68"/>
          <path class="cls-2" d="M789.83,612.67c-135.74,179.06-316.4,256.75-473.19,384.13-142.24,115.58-237.4,293.98-333.24,484.68"/>
          <path class="cls-2" d="M808.88,643.5c-135.74,179.06-316.4,256.75-473.19,384.13-142.24,115.58-237.4,293.98-333.24,484.69"/>
          <path class="cls-2" d="M827.95,674.3c-135.74,179.06-316.4,256.75-473.19,384.13-142.24,115.58-237.4,293.98-333.24,484.68"/>
          <path class="cls-2" d="M847.01,705.12c-135.74,179.06-316.4,256.75-473.19,384.12-142.24,115.59-237.4,293.99-333.24,484.68"/>
          <path class="cls-2" d="M866.08,735.94c-135.74,179.06-316.4,256.75-473.19,384.12-142.24,115.59-237.4,293.99-333.24,484.69"/>
          <path class="cls-2" d="M885.15,766.77c-135.61,178.91-315.92,256.11-472.57,383.26-142.41,115.61-237.62,294.44-333.62,485.23"/>
        </g>
      </g>
    </g>
  </g>
</svg>