<?xml version="1.0" encoding="UTF-8"?>
<svg id="Layer_1" data-name="Layer 1" xmlns="http://www.w3.org/2000/svg" viewBox="0 0 372.96 241.29">
  <defs>
    <style>
      .cls-1 {
        fill: #A20F81;
      }
    </style>
  </defs>
  <path class="cls-1" d="M214.53,99.3c-8.04-8.23,3.94-35.74,19.57-52.69,3.08-3.34,7.4-7.96,14.34-12.34,13.51-8.52,20.73-4.95,39.51-13.98,7.9-3.8,10.06-5.7,21.33-10.84,11.49-5.24,17.37-7.87,24.12-8.74,6.16-.79,19.42-2.5,29.02,5.59,12.7,10.71,10.38,31.3,10.14,33.21-.63,4.96-1.96,7.52-3.15,17.13-.99,7.99-.87,12.75-1.05,15.38-1.05,15.53-15.52,29.13-27.27,35.66-10.46,5.81-19.55,6.25-34.96,6.99-8.1.39-22.95.99-40.56-4.2-13.17-3.88-15.28-7.28-27.62-9.09-15.09-2.21-19.67,1.74-23.42-2.1ZM219.78,136.01c9.7,15.76,12.9,15.94,17.13,26.57,3.07,7.72,1.65,8.3,6.29,25.87,3.68,13.93,5.59,20.98,9.09,25.17,4.49,5.37,12.26,7.85,27.62,12.59,20.09,6.19,34.94,8.08,40.91,8.74,14.68,1.62,22.01,2.43,27.27.35,16.98-6.73,24.15-29.38,24.82-44.75.87-19.81-8.62-37.47-20.63-47.9-8.05-6.99-16.29-9.91-30.77-15.03-11.43-4.05-21.53-6.09-32.86-8.39-16.14-3.27-15.95-2.14-26.92-4.89-13.36-3.36-15.92-5.62-28.67-8.39-14.14-3.07-22.56-4.9-25.52-1.05-3.84,4.99,3.49,16.9,12.24,31.12ZM183.07,120.63c-11,9.74-13.27,7.71-20.63,15.03-9.93,9.89-6.87,14.66-16.78,27.97-11.07,14.87-17.3,12.15-22.38,22.73-5.74,11.97-4.57,29.66,5.59,41.6,13.4,15.75,35.55,13.39,39.86,12.94,12.44-1.32,12.62-6.28,33.56-10.49,11-2.21,15.05-1.67,20.98-5.59,10.5-6.96,13.55-19.13,13.98-20.98,2.74-11.6-1.23-21.44-9.09-40.91-3.77-9.34-7.81-16.76-8.39-17.83-5.61-10.25-7.12-10.33-10.49-17.48-6.33-13.43-4.71-20.96-8.74-22.03-3.83-1.01-6.62,5.41-17.48,15.03ZM149.5,97.91c-12.41-3.55-15.24-7.66-27.62-8.74-3.13-.27-16.4-1.19-31.47,5.24-17.26,7.37-15.2,15.14-32.51,25.87-22.94,14.22-36.93,7.02-44.4,19.93-4.66,8.05.25,11.78-5.24,31.47-3.49,12.5-5.94,12.67-7.34,21.33-.65,4-3.76,23.12,6.99,34.61,13.16,14.06,39.05,8.11,51.04,3.15,11.99-4.96,20.86-13.41,25.87-18.18,8.75-8.33,10.09-12.51,20.63-21.68,8.89-7.74,9.62-6.23,18.18-13.64,2.2-1.9,12.52-10.97,22.73-25.52,7.82-11.15,8.06-14.8,15.38-21.68,3.66-3.44,5.22-4.04,14.68-10.49,16.82-11.46,25.23-17.19,24.47-19.58-1.43-4.52-23.44,5.9-51.39-2.1ZM209.29,73.78c4.38-15.72,14.01-18.8,12.59-28.32-1.12-7.52-8.12-12.18-12.94-15.38-17.58-11.7-38.38-5.76-41.25-4.89-4.45,1.34-18.39,5.78-27.27,19.58-1.66,2.57-12.6,19.58-5.24,32.51,3.93,6.91,11.33,9.59,15.73,11.19,11.21,4.06,14.82-.31,28.67,2.1,15.55,2.7,20.61,9.88,25.52,6.64,4.75-3.13.51-10.19,4.2-23.42Z"/>
  <path d="M223.68,102.09c0,4.98-5.16,9.57-13.73,9.57s-16.97-.59-16.97-5.57,4.45-13.57,13.03-13.57,17.67,4.59,17.67,9.57Z"/>
</svg>