<?xml version="1.0" encoding="UTF-8"?>
<svg id="Layer_1" data-name="Layer 1" xmlns="http://www.w3.org/2000/svg" viewBox="0 0 178.96 183.31">
  <defs>
    <style>
      .cls-1 {
        fill: #d76f2d;
      }
    </style>
  </defs>
  <path class="cls-1" d="M86.97,68.98c-4.24-3.23,4.15-25.7,15.51-40.22,2.76-3.52,5.88-6.78,12.12-13.3,7.02-7.32,10.59-11.02,13.69-12.52,7.92-3.83,18.15-2.93,25.81,1.17,16.79,9,16.5,30.82,16.43,33.24-.11,3.81-.5,12.71-7.04,20.73-.73.9-10.58,12.65-22.68,11.34-8.59-.93-10.13-7.56-18.77-7.04-5.55.33-5.89,3.13-13.3,3.52-4.73.25-6.27-.8-12.52-.39-6.07.4-8.13,4.32-9.25,3.46Z"/>
  <path class="cls-1" d="M93.61,74.1c.56-3.2,11.21-6.45,18.34-4.57,3.68.97,4.09,2.38,7.87,2.88,5.1.67,6.52-1.62,11.47-1.64,6.38-.02,6.71,3.79,12.78,4.26,7.42.58,9.38-4.92,16.39-4.59,7.15.34,12.17,6.4,13.11,7.54,10.11,12.22,1.49,30.75.98,31.79-2.04,4.22-5.76,11.91-13.77,14.09-8.14,2.22-17.51-2.13-21.96-8.19-3.42-4.67-2.25-8.06-6.88-12.78-3-3.05-4.27-2.43-9.83-5.9-7.46-4.65-6.94-6.88-16.72-14.75-7.28-5.87-12.13-6.17-11.78-8.14Z"/>
  <path class="cls-1" d="M91.31,75.54c2.28-.33,7.48,3.22,15.07,12.93,3.68,4.71,6.16,7.89,10.49,11.14,6.22,4.68,9.71,4.6,16.39,10.49,2.44,2.15,1.79,1.99,5.57,5.57,3.54,3.35,6.7,5.93,12.63,10.47,12.72,9.75,12.36,8.72,13.44,10.25,5.25,7.39,3.57,16.93,2.51,23-1.26,7.16-3.35,19.07-11.84,22.55-5.73,2.35-11.43-.34-22.32-5.47-8.67-4.08-14.59-6.87-17.77-13.21-1.65-3.3-1.86-6.15-5.01-8.88-3.23-2.8-5.32-1.8-9.34-3.87-8.04-4.15-10.87-13.94-11.39-15.72-1.33-4.6-.19-5.27-2.05-13.44-1.26-5.52-1.92-5.81-2.28-8.65-.78-6.15,1.66-9.81,4.1-16.63,5.04-14.07-.95-20.14,1.8-20.54Z"/>
  <path class="cls-1" d="M88.21,80.67h0c.23,2.15.27,5.29-.92,8.68-1.37,3.9-3.17,4.75-5.03,7.77-3.91,6.35-2.92,13.9-1.87,21.87.84,6.41,1.78,5.85,2.3,11.22.93,9.52-1.46,17.03-2.01,18.7-3.86,11.58-11.68,18.17-15.82,21.58-4.66,3.83-11.09,9.11-20.28,9.64-2.82.16-7.64.44-11.8-2.45-3.28-2.28-2.99-4.33-7.05-7.91-4.44-3.91-6.17-2.68-9.5-5.75-4.37-4.04-2.21-6.93-6.62-14.82-4.01-7.17-7.09-7.07-8.49-12.8-.32-1.31-1.74-7.1,1.29-11.37,2.06-2.89,4.36-2.55,10.79-5.9,5.85-3.04,5.4-4.08,10.36-6.76,7.42-4.01,9.62-2.33,16.54-5.47,6.67-3.02,7.15-5.73,14.67-11.22,4.11-3,10.34-6.85,19.13-9.93l14.3-5.08Z"/>
  <path class="cls-1" d="M83.8,69.53c-.54-2.47-4.38-2.36-5.85-5.91-1.05-2.54.31-4.06.86-8.42.36-2.86,1.21-9.59-2.24-13.41-1.88-2.08-5.66-2.59-13.24-3.61-5.14-.69-7.75-1.02-9.63-.17-3.22,1.45-3.08,3.82-7.74,11-3.9,6.01-5.26,6.29-7.91,11.52-2.1,4.15-3.46,6.92-2.58,9.97.64,2.24,2.44,3.76,6.02,6.71,3.38,2.78,5.45,4.49,8.08,5.67,10.35,4.67,22-2,25.1-3.78,1.54-.88,9.95-5.7,9.11-9.57Z"/>
  <path d="M95.44,73.43c0,4-3.24,7.24-7.24,7.24s-7.24-3.24-7.24-7.24,3.24-7.24,7.24-7.24,7.24,3.24,7.24,7.24Z"/>
</svg>