<?xml version="1.0" encoding="UTF-8"?>
<svg id="Layer_1" data-name="Layer 1" xmlns="http://www.w3.org/2000/svg" viewBox="0 0 355.48 290.64">
  <defs>
    <style>
      .cls-1 {
        fill: #77b09f;
      }
    </style>
  </defs>
  <path class="cls-1" d="M198.24,146.59c3.57,6.25-3.58,16.96-18.01,38.13-26.02,38.17-39.26,57.37-50.3,63-5.74,2.93-22.65,11.27-43.35,7.24-4.42-.86-18.23-3.55-28.31-14.45-11.56-12.5-9.35-26.19-12.64-43.1C36.18,148.88-6.26,137.54.78,114.86c4.62-14.88,27.07-23.46,43.25-22.26,11.75.87,12.33,6.3,30.03,13.01,27.68,10.49,35.49.68,58.85,11.25,16.74,7.57,14.58,13.44,32.22,19.85,18.7,6.79,29.26,3.15,33.11,9.89ZM274.25,137.27c15.88-6.15,16.89-10.93,37.95-18.22,20.9-7.23,28.67-5.55,36.05-13.85,11.79-13.25,5.84-37.25,4.92-40.62-1.18-4.33-7.08-26.08-24.24-32.51-16.26-6.1-25.74,7.9-41.62.77-11.84-5.32-10.55-14.88-23.09-18.6-9.2-2.73-20.41-.69-27.77,5.6-3.64,3.11-5.6,6.63-10.27,19.82-5.48,15.48-8.22,23.22-10.21,32.92-5.23,25.42-.66,30.65-7.66,43.85-6.6,12.45-14.06,14.03-12.86,18.69,2.71,10.5,43.95,15.66,78.8,2.16ZM201.82,158.02c-5.34,1.36-8.21,9.45-13.94,25.62-4.12,11.61-6.93,23.52-9.02,39.58-3.59,27.62-5.38,41.43.48,50.19,10.7,16,34.19,17.13,36.07,17.2,19.73.68,24.01-11.64,44.07-9.35,12.89,1.47,19.43,7.51,26.47,3.32,7.22-4.29,8.05-15.21,8.16-17.19,1.09-19.21-18.28-28.19-45.32-58.01-28.74-31.69-36.38-54.06-46.97-51.36ZM203.52,102.75c3.09-17.99-9.16-20.53-5.1-35.38,3.59-13.17,14.51-15.88,13.93-26.39-.53-9.62-10.16-16.29-11.42-17.13-18.48-12.42-37.46,7.87-67.48,4.67C99.29,24.88,89.03-5.09,76.6.75c-19.11,8.98-10.01,86.94,16.98,96.17,2.23.76,2.73.42,29.22,6.09,10.1,2.16,13.99,3.06,18.95,5.71,7.26,3.89,7.36,6.49,17.27,14.94,2.35,2,22.82,19.45,28.42,15.06.78-.61,1.03-1.45,1.16-1.88,4.02-13.1,12.58-20.45,14.92-34.09ZM232.63,169.26c12.06,10.93,10.53,14.74,21.4,23.31,15.16,11.95,31.34,14.93,37.83,16.05,9.78,1.68,41.39,7.13,50.06-7.26,8.95-14.86-12.07-41.69-25.99-52.35-7.55-5.78-13.5-7.18-16.81-7.64-8.22-1.15-14.35,1.49-19.87,3.44,0,0-22.49,7.94-48.15,7.26-19.46-.52-32.21-7.21-32.87-5.47-.74,1.95,16.76,6.7,34.39,22.67Z"/>
  <path d="M187.92,129.76c6.63-2.12,17.88,1.47,20.8,10.62,2.92,9.15,7.85,20.5,1.21,22.62s-19.15-.48-22.07-9.63c-2.92-9.15-6.57-21.49.06-23.61Z"/>
</svg>