<?xml version="1.0" encoding="UTF-8"?>
<svg id="Layer_1" data-name="Layer 1" xmlns="http://www.w3.org/2000/svg" viewBox="0 0 267.6 262.25">
  <defs>
    <style>
      .cls-1 {
        fill: none;
        stroke: #F0047F;
        stroke-miterlimit: 10;
        stroke-width: 4px;
      }

      .cls-2 {
        fill: #77B09F;
      }
    </style>
  </defs>
  <circle class="cls-2" cx="121.97" cy="147.4" r="21.44"/>
  <path class="cls-1" d="M120.92,138.28c-2.64.98-18-23.68-20.99-51.67-.48-4.52-4.88-52.26,26.64-74.27,2.85-1.99,22.4-15.64,40.37-8.07,16.07,6.77,22.68,27.04,23.41,41.17,2.47,47.56-58.21,90.86-60.55,88.8-1.21-1.07,9.49-17.67,24.22-29.87,7.61-6.3,32.08-26.57,62.97-20.99,19.56,3.53,46.03,18.21,48.44,41.17,2.06,19.61-14.52,34.95-16.95,37.14-35.87,32.23-111.26,9.63-113.02-7.27-.33-3.13,1.69-6.41,4.04-8.07,11.02-7.78,37.41,13.7,40.37,16.15,5.59,4.63,18.62,15.68,26.64,35.52,4.35,10.78,15.2,37.61,2.42,52.47-11.41,13.28-36.77,11.33-53.28,4.04-44.46-19.64-57.58-92.59-50.86-96.07,2.64-1.37,11.41,6.41,12.92,15.34,2.78,16.46-19.77,32.66-28.26,38.75-12.97,9.31-44.91,32.25-63.78,19.38-16.9-11.54-16.87-47.43-1.61-67.81,23.05-30.79,81.52-27.14,82.35-23.41.36,1.63-9.65,6.22-19.38,7.27-26.24,2.81-48.27-20.45-54.9-27.45-5.69-6-39.77-42.01-27.45-64.58,10.36-18.98,49.96-21.97,75.08-7.27,38.58,22.58,45.13,88.14,41.17,89.61Z"/>
</svg>