<?xml version="1.0" encoding="UTF-8"?>
<svg id="Layer_1" data-name="Layer 1" xmlns="http://www.w3.org/2000/svg" viewBox="0 0 171.59 159.96">
  <defs>
    <style>
      .cls-1 {
        fill: #77b09f;
      }

      .cls-2 {
        fill: #a2137d;
      }
    </style>
  </defs>
  <circle class="cls-2" cx="85.27" cy="77.48" r="6.57"/>
  <path class="cls-2" d="M84.54,68.82c-2.87,1.17-15.3-12.68-12.51-25.17.28-1.26,1.47-6.59,4.96-7.53,3.64-.98,7.45,3.44,8.57,4.74,1.02,1.19,4.7,5.8,4.05,11.51-.42,3.65-2.18,4.06-3.67,9.87-1.21,4.69-.51,6.21-1.4,6.58ZM100.64,67.96c6.85-3.53,5.61-5.95,12.36-9.49,1.95-1.02,4.65-2.18,5.01-4.43.14-.83-.07-1.68-.58-2.64-2.52-4.68-13.17-13.21-18.84-9.66-1.67,1.05-2.47,3.24-4.05,7.61-.79,2.18-1.09,3.59-2.17,8.86-2.08,10.13-2.29,11.31-1.45,12.07,1.89,1.71,6.76-.81,9.73-2.34ZM102.34,79.28c10.64,3.75,20.24,2.91,23.98-2.22,1.75-2.41,3.09-6.96,1.11-9.66-1.53-2.09-4.45-2.25-7.77-2.44-1.96-.11-6.51-.37-10.77,2.33-2.72,1.72-2.7,2.99-5.27,4.78-3.39,2.37-7.16,2.77-9.72,2.77M99.8,86.96c3.57,3.97,4.22,4.03,5.88,6.02,6.17,7.41,4.18,15.08,7.18,15.71,2.67.56,6.34-5.07,7.72-9.62.3-.98,2.66-9.05-1.22-12.46-2.28-2-4.54-.49-9.89-1.22-9.4-1.28-14.82-7.63-15.61-6.68-.7.84,3.59,5.62,5.94,8.23ZM105.95,99.22c-.64-2.07-1.79-3.57-3.58-5.89-1.42-1.84-2.84-3.06-5.5-5.68-2.66-2.61-4-3.9-4.66-3.6-1.26.58-.77,5.73,1.24,10.09,2.11,4.57,4.11,4.4,6.37,9.09,2.41,5,2.03,8.09,3.13,8.17,1.61.11,4.74-6.52,3-12.18ZM82.93,95.06c-.64,2.48-1.58,6.18.45,9.45,1.56,2.51,9.69,9.2,11.96,8.2,1.76-.78,1.85-5.58,1.7-6.81-.34-2.88-2.41-5.09-3.53-6.36-1.29-1.47-2.01-3.7-2.71-5.38-2.02-4.84-1.2-7.57-2.25-7.87-1.41-.41-4.43,4.1-5.62,8.77ZM73.59,88.71c-5.12,2.94-7.71,4.41-8.32,5.11-3.46,3.95-5.97,12.1-1.75,16.05,4.45,4.17,13.82,1.27,15.83-3.14,1.28-2.79-1.16-4.41-.93-10.03.28-6.61,3.92-10.34,2.7-11.36-.56-.47-1.69.01-7.53,3.37ZM66.08,78.65c-5.71-1.99-5.82-4.36-10.07-5.47-6.78-1.78-15.6,1.87-16.18,6.07-.45,3.3,4.25,6.53,6.65,8.17,2,1.37,5.65,3.87,10.35,3.6,2.86-.17,3.4-1.21,10.99-5.07,6.39-3.25,9.13-4.1,8.95-5.05-.22-1.2-4.65-.13-10.7-2.25ZM56.76,65.69c.93,1.91.89,2.12,1.51,3.02,3.18,4.64,9.06,5.43,9.96,5.53,4.44.53,9.99-.8,10.26-2.82.21-1.6-3.14-2.01-6.34-5.94-3.33-4.1-1.76-6.21-4.47-9.14-4.79-5.18-15.97-4.38-17.08-1.47-.64,1.68,2.45,3.18,6.16,10.81Z"/>
  <path class="cls-1" d="M9.25,78.59c0,.88.13,1.06.22,1.89.04.48.17,2.25.17,2.73,0,1.37.22,3.44.22,4.19,0,.26.75.35,1.76.35,1.19,0,2.73-.13,3.66-.13h.04c-.04-1.19-.04-1.98-.04-2.78v-2.12c0-1.01-.09-.97-.09-1.94v-.66c0-.66.4-1.28,1.15-1.28.62,0,.13-.09,2.78-.09.57,0,.62.04,1.28.04h.04c.4,0,.84-.09,1.28-.09.22,0,.44.04.62.09.26.09.26.4.35.66.13.48.18.97.17,1.45,0,.88.04,1.5.04,2.07,0,.44-.04.88-.09,1.41l-.05,2.47c1.41.09,1.06.09,2.42.09,1.01,0,2.29.09,3.35.09.57,0,1.54,0,2.11-.04.22-.04.44-.04.71-.04h.31c.35,0,.48.13.57.53.13,1.59.22,4.18.22,5.64,0,.22-.04.4-.22.57-.18.18-.31.26-.57.26-1.23,0-2.38.09-3.57.09-.44,0-.84,0-1.28-.04-1.41,0-3.13-.05-4.58-.05-1.32,0-2.6.04-3.92.04-.97,0-1.98-.09-2.95-.09-.53,0-1.1.09-1.63.09-.88.04-1.81.09-2.78.09-2.2,0-4.49-.14-6.43-.22-.93-.04-1.85-.13-2.78-.13-.31,0-.48.09-.62.09-.13,0-.22-.09-.4-.35-.22-.4-.22-.75-.22-1.15-.04-1.15-.09-3.61-.22-4.76,0-.18,0-.31-.04-.44C.17,85.63,0,84.14,0,82.59c0-.71.04-.84.04-1.59,0-.4.04-.97.04-1.5,0-.35-.04-.66-.09-.88v-.22c0-.4.75-.48,1.63-.48,2.2,0,5.15.09,7,.09.31,0,.57.26.62.57ZM35.69,66.05c.26,1.1.18,2.96-.21,4.64l-.16.5c-.42,1.35-1.12,2.37-2.02,3.2-1.8,1.6-4.12,2.08-6.71,1.95-1.13-.08-2.33-.22-3.55-.47-1.78-.37-3.65-.87-5.53-1.37-.6-.14-1.27-.35-1.86-.54-.88-.28-1.75-.6-2.66-.93-.7-.27-1.38-.62-2.08-.88-3.17-1.37-5.21-2.38-6.7-4.55-.8-.99-1.49-2.31-1.19-3.84.14-.88.32-1.89.62-2.85.53-1.68,1.38-3.35,2.56-4.32.45-.41.92-.87,1.47-1.15,3.25-1.98,6.92-1.61,12.89.26l.88.28c.77.2,1.53.43,2.28.67,5.21,1.64,9.43,3.65,11.27,7.33.35.66.54,1.37.69,2.06ZM14.19,61.74c-.25.06-.67.53-.85,1.07l-.05.17c-.15.78-.02,1.52.3,1.99.76,1.11,1.79,1.95,3.03,2.57.41.17.89.42,1.39.58l.46.15c1.54.39,5.45,1.02,6.08-1,.85-2.69-2.67-4.3-5.57-5.21-.5-.16-.95-.21-1.41-.35-.38-.12-.85-.22-1.36-.24-.95-.07-1.38-.02-2.03.29ZM45.03,50.69c-.11,1.12-.8,2.86-1.71,4.32l-.31.42c-.84,1.13-1.83,1.88-2.95,2.37-2.22.93-4.57.63-6.98-.33-1.04-.44-2.13-.97-3.2-1.6-1.56-.93-3.17-2.01-4.78-3.09-.52-.33-1.09-.75-1.59-1.12-.74-.55-1.46-1.13-2.22-1.75-.58-.48-1.1-1.03-1.68-1.51-2.56-2.32-4.15-3.94-4.85-6.48-.43-1.2-.66-2.67.12-4.02.42-.79.91-1.68,1.51-2.5,1.05-1.42,2.39-2.72,3.83-3.25.56-.24,1.15-.52,1.77-.61,3.72-.81,7.07.73,12.11,4.45l.74.55c.66.44,1.3.91,1.94,1.38,4.4,3.24,7.72,6.52,8.28,10.6.11.74.06,1.47-.02,2.18ZM26.1,39.62c-.26-.02-.81.28-1.15.74l-.11.14c-.4.69-.51,1.43-.36,1.98.35,1.3,1.06,2.42,2.03,3.41.33.3.7.68,1.13,1l.39.29c1.33.87,4.82,2.74,6.08,1.04,1.67-2.27-1.12-4.94-3.57-6.74-.42-.31-.83-.51-1.22-.79-.32-.24-.74-.49-1.2-.67-.88-.37-1.3-.46-2.01-.39ZM63.27,12.48c-.81.34-.93.53-1.66.93-.43.23-2,1.03-2.45,1.21-1.26.53-3.09,1.53-3.78,1.82-.24.1-.04.83.35,1.76.46,1.1,1.17,2.47,1.53,3.32l.02.04c1.08-.5,1.81-.8,2.54-1.11l1.95-.81c.94-.39.86-.46,1.75-.83l.61-.25c.61-.25,1.33-.13,1.62.56.24.57.13.09,1.15,2.53.22.53.2.59.45,1.2l.02.04c.15.37.4.74.57,1.14.08.2.13.42.16.6.02.28-.26.4-.47.58-.4.31-.83.54-1.27.72-.81.34-1.37.62-1.89.84-.41.17-.83.3-1.33.46l-2.29.91c.46,1.33.33,1.01.85,2.27.39.94.8,2.15,1.21,3.12.22.53.59,1.42.85,1.93.13.19.21.39.31.63l.12.28c.14.33.06.5-.27.73-1.41.73-3.78,1.82-5.12,2.38-.2.08-.38.11-.61.02-.23-.09-.36-.18-.46-.43-.48-1.14-1-2.16-1.46-3.26-.17-.41-.32-.77-.45-1.2-.54-1.3-1.16-2.9-1.72-4.24-.51-1.22-1.04-2.38-1.55-3.6-.37-.89-.68-1.86-1.06-2.76-.2-.49-.51-.98-.71-1.47-.38-.8-.78-1.63-1.15-2.53-.85-2.03-1.61-4.2-2.27-6.02-.32-.87-.59-1.76-.95-2.61-.12-.29-.27-.41-.32-.54-.05-.12,0-.24.17-.5.28-.36.61-.49.97-.64,1.04-.48,3.3-1.47,4.31-2.04.16-.07.28-.12.39-.21,1.35-.66,2.66-1.4,4.08-1.99.65-.27.79-.28,1.48-.57.37-.15.91-.33,1.4-.54.33-.14.59-.29.78-.42l.2-.08c.37-.15.73.5,1.08,1.32.85,2.03,1.9,4.79,2.62,6.5.12.28-.02.63-.29.79ZM86.13,19.57c-.65.11-1.22.21-1.87.28l-.53.05c-1.05.11-1.89.15-2.94.26,0,0-.13,1.74.01,3.1.01.13.32.1.46.13.63.07,1.24.05,1.9-.02,1.14-.12,2.48-.39,3.54-.5h.09c.39-.05.74-.09.81.57.24,2.28.52,4.59.75,6.83l.1.96c.05.53-.69.65-1.26.71-.09,0-.22.02-.31.03-3.42.35-6.6.82-10.19,1.19-.66.07-1.31.14-1.97.25l-1.14.12c-.13.01-.31.03-.44,0-.28-.1-.47-.31-.51-.66l-.11-1.05c-.05-.92-.15-1.89-.25-2.81-.66-6.35-1.54-13.17-2.25-20.05l-.29-2.76c-.1-.97-.16-1.98-.26-2.99l-.06-.57c-.04-.35-.02-.66.07-1.03.07-.14.15-.24.33-.26h.09c.96-.11,1.81-.11,2.94-.23.79-.08,1.28-.09,2.06-.17,1.49-.11,2.25-.06,3.74-.21.48-.05.7-.07,1.18-.17.48-.09.78-.12,1.26-.22.52-.1,1.39-.23,1.88-.28.53-.05.84-.04,1.41-.1.26-.03.5.08.7.33.05.08.06.13.07.21l.05.48c.08.35.05.53.13.83.08.3.41,3.15.45,3.45.05.53-.05.76-.57.9-1.04.24-2.66.41-3.89.53-.52.05-1.01.1-1.49.15-.26.03-.48.05-.54.32-.12.54-.09,1.29-.02,1.95l.25,2.41c.02.22.04.39.1.52.06.13.19.16.32.14.79-.08,1.63-.12,2.5-.21.79-.08,1.57-.21,2.31-.37.13-.01.21-.07.35-.08h.09c.13-.02.31,0,.41.08.28.15.31.46.34.72l.1,1.01c.17,1.66-.02.71.32,3.91l.15,1.49c0,.09.02.22.04.35.01.13.03.26-.05.36-.09,0-.26.07-.35.08ZM104.24,12.19c-.52-.1-1.05-.12-1.62-.01-.57.15-1,.52-1.25,1.09-.08.16-.11.34-.15.51-.12.6.03,1.17.33,1.73.23.41.55.83.83,1.25.47.81,1.88,1.59,2.41,2.33.57.74,1.04,1.51,1.56,2.29.51.82.64,1.75.68,2.65.03.73-.01,1.39-.15,2.08-.09.43-.23.9-.4,1.31-.3,1.06-.96,1.87-1.49,2.71-.37.51-.86.91-1.27,1.41-.13.2-.38.33-.6.51-.53.39-1.09.72-1.72.96-.05.03-.15.06-.24.09-1.8.45-3.59.67-6.01.4-.53-.06-1.36-.18-1.96-.31l-.26-.05c-1.08-.22-2.82-.71-3.64-.87-.3-.06-.54-.24-.76-.47-.22-.23-.27-.46-.2-.8.3-1.24.54-2.23.76-3.31.29-1.43.63-2.7.9-4,.13-.65.23-1.35.32-2.05l.04-.17c.06-.3.16-.37.48-.4.18,0,.35.03.57.07.73.15,1.46.34,2.15.48.56.11,1.13.18,1.59.14,1.1-.09,2.14-.38,3.01-1.1.43-.36.71-.85.81-1.32.1-.52,0-1.08-.33-1.5-.23-.41-.42-.8-.65-1.21-.38-.57-1.03-1.15-1.51-1.65-.38-.35-.71-.73-.99-1.1-.42-.58-.84-1.2-1.21-1.82-.5-.86-.74-1.68-1.01-2.81-.15-.8-.14-1.29-.03-2.07l.05-.26c.42-2.07,2.01-3.05,3.4-3.72,1.8-.9,3.78-.9,6.38-.65.62.04,1.27.17,1.87.29,1.77.36,3.75,1.03,5.47,1.38.52.1.7.32.69.81l-.51,2.55c-.1.47-.17.82-.28,1.61-.04.44-.09.66-.17,1.09-.16.78-.3,1.29-.45,2.02l-.09.43c-.17.37-.52.57-.91.49-1.34-.27-2.78-.7-4.03-.95l-.39-.08ZM118.85,19.12c-.58-.32-1.33-.69-2.1-1.12-.5-.28-1.02-.62-1.42-.89-.08-.04-.13-.12-.25-.19-.17-.24-.24-.48-.09-.75l1.41-2.54c.98-1.57,2.06-3.44,2.96-4.96l.11-.19c.21-.39.55-.9.94-.69,4.4,2.14,10.26,5.4,13.69,7.2l.19.11c.23.13.44.29.45.65.01.16-.07.31-.18.5-.62,1.02-1.08,1.67-1.53,2.48-.11.19-.17.41-.28.6l-.98,1.77c-.41.73-.58,1.14-.95,1.89l-.47.85c-.15.27-.28.5-.39.79l-.15.27c-.09.15-.3.08-.48.04-.33-.13-.51-.18-.7-.29-.27-.15-.5-.38-1.15-.74l-.89-.49c-.39-.21-.89-.39-1.37-.61-.24.17-.66.74-.83,1.05-.34.62-.66,1.1-.89,1.52-2.4,4.31-5.31,9.55-8.21,14.6-.09.15-.19.35-.34.52-.15.27-.41.38-.64.25-.77-.43-2.08-1.06-3.05-1.59-.31-.17-.58-.32-.75-.47l-.12-.06c-.15-.09-.29-.11-.45-.2-.12-.06-.17-.15-.28-.31-.07-.14.11-.65.19-.8l4.71-8.47c1.52-2.74,2.89-5.2,4.27-7.96.11-.19.35-.81.46-1.01.06-.12.13-.23.15-.37-.17-.15-.4-.27-.59-.38ZM124.32,49l-.48-.45c-1.06-.99-2.79-2.56-4.21-3.89-.48-.45.54-1.79,1.8-3.14.9-.96,1.96-1.96,2.54-2.57.12-.13.21-.23.3-.32.24-.32.42-.51.63-.74.18-.19.36-.38.57-.61l2.98-3.18c2.26-2.41,4.71-4.89,6.85-7.17l.57-.61c.66-.71,1.26-1.41,1.93-2.12.78-.9,1.6-1.76,2.47-2.7l.42-.45c.15-.1.28-.16.4-.23.12,0,.28.02.35.08l.26.24c.48.45.99.81,1.5,1.23,1.54,1.45,2.93,2.8,4.4,4.19.06.06.1.09.1.22.01.31-.07.59-.29.82l-2.2,2.34c-1.69,1.8-3.41,3.63-5.07,5.27-1.63,1.61-2.81,2.8-3.86,3.93-.81.87-1.57,1.73-2.44,2.66-.87.93-1.93,1.99-3.26,3.34l-3.22,3.44s-1.05,1.19-1.08,1.22c-.12.13-.31.2-.49.2-.25,0-.95-.53-1.47-1.01ZM131.92,59.44c-.85-1.49-1.66-3.01-2.31-4.41-.27-.56.82-1.23,1.25-1.63.66-.53,1.21-.99,1.93-1.6,3.62-3.18,6.48-5.98,10.09-9.25,1.2-1.09.98-.86,3.11-2.73.28-.21.49-.48,1.05-1,2.37-2.16,4.07-3.54,6.23-5.53l.04-.02c.46-.26,1,.7,1.29,1.19l.04.08c.22.38.51.98.81,1.51l2.64,4.63c.5.88-.56,1.59-.73,1.74-.08.04-.17.15-.25.19-.56.52-1.09,1.03-1.71,1.53-2.34,2.04-1.86,1.36-4.7,3.85-.66.53-2.23,2.13-3.18,2.78-.44.3-.85.74-1.22,1.05-2.47,2.17-2.97,2.81-2.86,3,0,0,3.2-1.32,6.23-2.23,3.77-1.03,7.85-2.7,11.7-3.93.21-.07.33-.14.5-.19l.04-.02c.27-.05.63-.05.76.18l.92,1.61c.71,1.17,1.11,1.6,1.92,2.92.13.23.39.59.56.9.13.23.2.44.23.58-.02.06-.19.21-.34.3-.12.07-.19.11-.29.11-.78.24-2.44.88-3.27,1.11-.84.22-1.38.33-2.22.55-.66.17-7.96,2.41-8.64,2.64-3.21,1.22-7.13,2.34-13.97,4.31-.64.21-1.34.41-2.02.64-.52.15-.58.13-.75-.08l-.02-.04s-.02-.04-.07-.11c-.02-.04-.04-.08-.07-.12-.86-1.34-1.82-2.92-2.71-4.49ZM145.18,88.32c-.71.29-.84.35-1.51.64-.63.28-1.11.58-1.66.8-.17.07-.3.09-.43.11-.35.05-.56-.14-.69-.43-.25-.45-.35-.84-.42-1.23-.07-.43-.09-.88-.17-1.4l-.05-.3c-.3-1.34-.54-2.32-.74-3.58-.02-.13,0-.27.03-.36.07-.14.31-.27.57-.36.08-.06.17-.07.29-.13.04,0,.12-.06.17-.07,2.76-1.19,3.97-1.43,6.5-2.36,2.53-.93.81-.22,2.31-.9.12-.06.2-.17.27-.27-.03-.17-.12-.78-.11-1.01-.07-.43-.09-.83-.16-1.31l-.07-.44c-.05-.3-.04-.53-.09-.83-.03-.22-.12-.47-.18-.86-.2-.15-.14-.33-.46-.37-1.3-.06-2.01,0-3.3-.02-1.02.03-1.73.05-2.58.05-1.02.07-1.81.11-2.88.14-.27,0-.54,0-.8,0-.18-.02-.37-.08-.51-.14-.11-.12-.26-.23-.28-.36-.19-.37-.32-.89-.4-1.41-.08-.52-.13-1.14-.21-1.62l-.16-1c-.06-.39-.17-.82-.25-1.3-.11-.7-.12-1.36.08-1.75.04-.05.08-.06.12-.06.13-.02.27,0,.36-.01.18.02.36-.01.54,0,.85.04,1.53.12,2.2.1.13-.02.4-.02.5.05,2.56-.13,4.69.02,7.69.13,5.47.17,9.42.35,13.95.53,1.84.07,3.76.39,5.89.28.44-.02.42.11.59.35l.06.39c.21.5.32.89.54,1.43.04.26.18.55.27.85.03.22.43,2.47.64,3.82l.14.87c.04.84,0,1.65.03,2.45-.02.14-.05.28-.16.38-.2.17-.39.33-.6.41-1.08.48-2.19.83-3.28,1.27-.76.25-1.56.56-2.27.89-2.18,1.15-4.32,1.75-6.75,2.71-1.18.45-2.45.87-3.63,1.33-1.69.62-2.9,1.39-4.79,2.14-.72.25-1.26.47-2.1.82-.79.35-1.32.65-2.04.94ZM155.28,76.56s.05.04.09.03c.09-.01.14.02.22,0,.87-.14,2.15-.78,3.93-1.38,1.28-.38,2.56-.72,4.18-1.24.17-.07.2-.12.19-.21-.01-.09-.06-.12-.08-.21,0-.04-.11-.38-.55-.4-3.15-.17-7.03.12-8.07.29l-.22.03c-.04.05-.08.06-.12.06-.22.03-.17.61-.1,1.04.03.22.05.35.08.48.12.47.32,1.2.32,1.2.06.08.05.3.13.29ZM139.44,90.44l.04-.22c.13-.47.33-.79.57-1.15.13-.24.46-.32.72-.27l.65.12c.69.13,1.39.22,2.04.34.35.06.64.16,1.03.24,8.08,1.64,12.64,2.62,20.73,4.22.09.02.17.03.26.05.82.15,1.48.23,2.17.36.87.16,1.9.4,3.44.78.34.11.51.14.49.49-.03.17-.02.36-.05.48-.02.13-.09.25-.12.38-.12.38-.17.69-.3,1.15-.18.5-.26.94-.34,1.33l-.13.69c-.12.65-.27,1.21-.62,1.9-.08.16-.26.18-.47.13l-11.74-2.18c-1.21-.23-1.93-.49-3.14-.72-.87-.16-1.84-.48-2.62-.62-.48-.09-.87-.12-1.09.07-.82.56-1.46,3.76-1.82,5.67-.02.13-.05.26-.07.39l-.02.13c-.11.61-.76.71-1.5.57-3.34-.62-6.78-1.13-9.9-1.71-.21-.08-.32-.2-.32-.42,0-.23.05-.48.09-.7.35-1.86.61-3.74.99-5.82.06-.35.14-.74.2-1.08.3-1.6.54-3.13.81-4.6ZM23.66,118.06c-.5.29-1.02.55-1.54.81-.92.45-1.81.89-2.76,1.2-.11.02-.19.07-.3.09-1.41.62-2.62.77-3.85.89-.48.04-.95.12-1.46.06-1.3-.15-2.51-.67-3.24-1.66-.23-.34-.54-.67-.78-1-.15-.27-.35-.54-.51-.81s-.28-.55-.4-.83c-.6-1.3-.6-2.68.1-4.1.17-.45.43-.88.65-1.32,1.28-2.35,3.7-4.33,7.24-6.37.38-.22.81-.43,1.22-.67,4.41-2.35,8.07-3.09,11.32-1.27.85.53,1.72,1.28,2.28,2.25.12.21.21.43.3.65.09.22.13.43.16.69.27,1.42.42,2.35-.05,3.92-.21.79-.67,1.49-1.18,2.1-.7.76-1.42,1.41-2.22,2.07-1.21.97-2.59,1.77-3.98,2.69-.35.2-.66.42-1.01.62ZM21.24,112.85c.27-.15.57-.37.84-.52,1.47-.93,2.2-1.43,3.06-2.39.23-.21.28-.47.25-.73-.02-.03,0-.08-.02-.11-.03-.06-.1-.1-.15-.19l-.02-.03c-.31-.53-1.05-.46-1.69-.2-.48.2-.99.33-1.44.56-.65.3-.96.44-1.46.73l-1.12.65c-.45.3-.57.37-1.01.62-.63.48-1.26.81-1.78,1.34-.35.28-.65.57-.89.91-.21.32-.25.58-.28.87-.02.09.03.18.06.24.05.09.16.14.36.15.29.03.66.05.97-.01.63-.13,1.23-.32,1.87-.57.93-.42,1.55-.78,2.47-1.31ZM37.21,114.52c.8.6,1.63,1.31,2.33,2.05l1.03,1.08c1.01,1.06,2.02,2.11,2.89,3.21l.33.34c.14.15.26.32.25.56,0,.43-.19.79-.46,1.05-.07.07-.15.09-.22.16-.42.3-.63.42-1.03.75-.61.49-1.23,1.08-1.82,1.64l-.76.73c-.34.33-.66.63-1.01.92-.24.19-.54.42-.81.58-.37.21-.73.32-1.16.36-.14,0-.26.02-.41.02-.75,0-1.47.28-2.15.51-.44.18-.87.32-1.33.48-.48.13-.99.29-1.45.45-1.48.42-3.44,1.22-4.73,2.03-.95.58-2.09.92-3.07,1.86-.27.26-.45.62-.65.9-.05.05-.05.14-.1.24-.02.02-.03.07-.05.1-.1.09-.27.07-.43-.06-1.14-.79-1.6-1.38-2.76-2.35-.14-.1-.28-.25-.47-.44-.4-.42-.85-.93-1.08-1.18-.14-.15-.23-.34-.35-.51-.05-.1-.04-.19.05-.29l.05-.05c.41-.26.81-.54,1.22-.79.34-.23.73-.51,1.1-.77,1.88-1.33,4.75-2.61,6.77-2.66.94,0,1.92-.05,2.86,0,.46-.01.91.02,1.34.08,1.08.1,2.58-.26,3.49-1.12.05-.05.1-.14.2-.28-.07-.12-.16-.27-.26-.37l-.42-.39-.68-.71c-.23-.25-.49-.52-.82-.81-1.25-1.11-2.15-1.61-3.35-2.86l-.09-.1c-.4-.47-.32-.73.05-1.08.44-.42.3-.47,1.63-1.74l.32-.31c.44-.42.88-.8,1.35-1.2.66-.59,1.32-1.12,1.94-1.66.15-.09.2-.19.36-.11.91.36,1.37,1.04,2.36,1.78ZM30.3,141.54c-.37-.08-.63-.3-.94-.51-.24-.19-.45-.42-.67-.64-.24-.19-.39-.49-.41-.78-.05-.48-.07-.98.03-1.48.14-.54.43-1.01.8-1.45l.26-.31c.78-.94,2.7-1.03,3.62-.28.19.25.38.45.6.67.57.6.43,1.46.5,2.17-.04.63-.35,1.17-.86,1.8-.84,1.02-1.95,1.03-2.92.81ZM54.8,142.96c-.28.51-.59,1-.9,1.49-.55.86-1.09,1.69-1.74,2.46-.08.07-.13.16-.21.24-.89,1.26-1.84,2.01-2.83,2.75-.39.29-.75.59-1.22.8-1.19.55-2.49.72-3.63.25-.37-.17-.81-.29-1.18-.46-.27-.15-.58-.28-.85-.43s-.52-.32-.77-.5c-1.19-.81-1.9-1.98-2.04-3.56-.09-.48-.08-.98-.12-1.47-.12-2.67.92-5.62,2.89-9.2.21-.39.47-.79.7-1.21,2.56-4.3,5.3-6.82,9.02-6.95,1,0,2.14.21,3.12.75.21.11.4.26.59.4.19.14.34.3.5.51.96,1.07,1.57,1.8,1.98,3.38.23.78.19,1.62.07,2.41-.21,1.01-.49,1.94-.83,2.92-.53,1.46-1.3,2.85-2.01,4.36-.2.36-.35.7-.54,1.06ZM50.04,139.76c.15-.27.3-.61.45-.88.78-1.55,1.14-2.36,1.38-3.63.09-.3,0-.55-.17-.75-.03-.02-.04-.06-.07-.08-.06-.03-.14-.04-.23-.08l-.03-.02c-.54-.3-1.13.15-1.55.7-.31.41-.67.79-.95,1.23-.4.59-.6.87-.88,1.38l-.62,1.13c-.23.49-.3.61-.54,1.06-.29.73-.66,1.34-.83,2.07-.15.42-.26.83-.29,1.24-.01.38.08.63.21.89.03.09.12.14.18.17.09.05.21.04.38-.06.26-.13.59-.3.83-.52.47-.44.89-.91,1.3-1.46.58-.84.93-1.47,1.43-2.39ZM64.53,132.9c1,.09,2.07.27,3.06.54l1.44.39c1.41.38,2.82.76,4.14,1.25l.46.12c.2.05.39.14.51.35.22.38.25.77.15,1.13-.03.1-.08.16-.1.25-.2.48-.32.69-.49,1.17-.27.74-.49,1.56-.7,2.35l-.27,1.02c-.12.46-.24.89-.38,1.3-.11.29-.24.64-.39.92-.2.37-.46.65-.81.91-.12.07-.22.15-.34.23-.63.39-1.11,1-1.58,1.55-.28.38-.58.72-.89,1.1-.34.37-.7.76-1.01,1.14-1.04,1.13-2.31,2.83-2.99,4.2-.51.99-1.31,1.87-1.66,3.18-.1.36-.06.76-.08,1.1-.02.07.03.15.04.26,0,.03.02.07,0,.11-.04.13-.19.19-.4.17-1.38-.09-2.09-.35-3.58-.57-.17-.01-.37-.06-.63-.13-.56-.15-1.21-.36-1.53-.45-.2-.05-.38-.17-.56-.26-.09-.06-.14-.14-.1-.27l.02-.07c.22-.43.41-.88.63-1.31.17-.38.36-.82.54-1.23.92-2.11,2.7-4.7,4.4-5.79.8-.49,1.62-1.04,2.44-1.49.38-.25.79-.46,1.19-.63.97-.48,2.07-1.56,2.4-2.77.02-.07.01-.17.02-.35-.12-.07-.28-.15-.41-.18l-.57-.12-.95-.25c-.33-.09-.69-.19-1.13-.27-1.64-.3-2.68-.26-4.35-.71l-.13-.04c-.58-.19-.65-.46-.52-.95.16-.59,0-.56.48-2.33l.11-.43c.16-.59.34-1.14.53-1.72.26-.84.55-1.65.79-2.43.08-.16.07-.26.25-.28.96-.17,1.71.18,2.95.3ZM75.86,144.95h.03c.34-.05.72-.03,1.06-.01.34.02.71.04,1.05.12.68.1,1.93.27,3.25.33.1,0,.17,0,.27.01.58.03,1.12-.01,1.6.01.34.02.64.07.91.22.3.18.46.43.44.77-.02.48-.04.85-.06,1.26-.04.75-.07,1.46-.23,2.51-.13,1.22-.07,1.49-.24,2.78-.05.34-.26.5-.57.55-1.06.08-2.28.09-3.47.03-1.46-.07-2.95-.25-4.09-.58-.3-.08-.64-.2-.82-.58-.06-.14-.09-.24-.08-.38.01-.24.06-.47.07-.78.1-1.94.13-4.01.22-5.84,0-.07,0-.17.08-.23.15-.2.45-.18.59-.18ZM90.33,143.67c-.43.36-.64.6-1.12.86-.22.13-.48.23-.71.36-.1.05-.16.09-.26.1-.3.04-.6-.16-.69-.56l-.06-.44c-.12-.67-.23-1.31-.32-1.98l-.04-.34c-.08-.33-.12-.7-.2-1.04-.05-.16-.08-.37-.11-.57-.03-.27-.06-.51-.06-.78,0-.21.09-.35.28-.48.48-.23.86-.52,1.22-.91.51-.58.98-1.19,1.27-1.91.08-.15.1-.32.11-.49.05-.18.21-.27.41-.29l4.35-.55c.17-.02.37-.05.54-.1l.14-.02c.13-.02.21,0,.32.1.22.14.38.29.41.53,0,.07.02.14,0,.21-.02.14,0,.24,0,.34.08.37.16.73.21,1.14.84,6.61,1.62,12.27,2.69,20.12,0,.07.03.2.03.2v.03c.05.34.11.57.15.87.02.14.07.3.09.47,0,.21-.16.4-.36.42-.88.11-1.49.43-2.37.54l-.27.03c-.84.11-1.24.26-2.15.37l-.34.04c-.35-.02-.5-.18-.54-.51l-.08-.64c-.46-2.85-.74-5.05-1.04-7.41l-.9-7.12c-.04-.3-.12-.64-.2-1.04-.12.12-.24.27-.39.43ZM105.8,143.46c.39-.45.56-1.01.37-1.59-.21-.65-.77-1.03-1.5-1.08-.03.01-.11,0-.14.01-.45.15-1.17.57-1.57.77-.46.23-.81.38-1.18.54-.13.04-.25.12-.38.16s-.28.13-.41.17-.27.05-.34-.06c-.46-.53-.65-.97-.84-1.55l-.43-1.29c-.12-.46-.23-.89-.37-1.31s-.31-.83-.45-1.25c-.13-.49-.26-.99-.35-1.49-.04-.24-.09-.47-.12-.68-.03-.31.08-.53.37-.62l.39-.13c1.29-.43,2.47-.86,3.99-1.36l.55-.18c.98-.29,1.94-.32,2.82-.04,1.56.48,2.47.97,3.6,2.42.4.44.65.97.83,1.52.44,1.32.77,2.54.76,3.69-.01.72-.02,1.44-.26,2.13-.05.16-.11.32-.19.49-.19.39-.38.81-.66,1.15-.03.01-.03.12-.04.19.12.03.22.11.32.11,1.21.31,2.64,1.48,3.35,2.75.28.52.48,1.02.64,1.51.35,1.06.46,2.14.3,3.16-.01.18-.05.38-.1.57-.79,2.38-3.53,3.61-6.65,4.79l-1.1.37c-.24.04-.46.12-.73.17-.3.06-.6.13-.9.09-.3-.04-.41-.15-.55-.57-.05-.16-.09-.37-.16-.59s-.26-.88-.33-1.11l-.15-.45c-.39-1.48-.55-2.51-.95-3.81l-.11-.32c-.08-.23-.11-.43.06-.67.15-.19,2.34-.92,2.8-1.18.42-.25,1.29-.75,1.01-1.59-.06-.19-.26-.34-.55-.35-.32,0-.59.05-.88.15-.35.12-.67.26-1.05.39-.25.12-.51.2-.8.3-.16.05-.34.04-.51-.01s-.23-.14-.31-.29c-.27-.48-.38-.81-.61-1.3v-.03c-.11-.29.31-.54.51-.6,1.42-.47,2.35-1.21,3-2.07ZM124.77,149.77c-.22.31-.52.47-.83.67-.27.14-.56.26-.84.37-.27.14-.6.17-.88.08-.46-.14-.94-.31-1.35-.59-.45-.34-.76-.79-1.04-1.3l-.19-.36c-.57-1.08.08-2.89,1.13-3.45.3-.08.56-.18.84-.29.77-.29,1.51.16,2.2.37.57.27.95.77,1.33,1.49.62,1.17.21,2.2-.37,3.01ZM135.48,127.67c.36.45.7.92,1.03,1.4.58.84,1.15,1.65,1.6,2.55.04.1.1.18.14.28.82,1.3,1.15,2.47,1.46,3.67.12.47.26.92.28,1.43.05,1.31-.29,2.58-1.16,3.45-.3.28-.58.64-.88.92-.24.19-.48.43-.72.62-.24.19-.5.36-.76.52-1.2.79-2.55,1-4.07.52-.47-.1-.93-.3-1.4-.45-2.51-.91-4.84-3.01-7.39-6.19-.28-.35-.55-.74-.84-1.11-2.99-4.01-4.27-7.51-2.96-11,.39-.92,1.01-1.9,1.88-2.6.19-.15.39-.27.6-.39.21-.12.41-.2.66-.27,1.36-.48,2.26-.76,3.88-.54.81.09,1.57.44,2.25.85.85.58,1.61,1.19,2.38,1.89,1.14,1.05,2.14,2.29,3.26,3.53.25.32.52.59.77.91ZM130.7,130.84c-.19-.24-.45-.51-.64-.75-1.14-1.31-1.74-1.96-2.82-2.66-.24-.2-.51-.2-.76-.13-.03.02-.07.02-.1.04-.05.04-.08.11-.16.18l-.03.02c-.48.38-.29,1.1.05,1.7.27.44.48.92.77,1.34.39.6.58.89.94,1.34l.81,1.01c.37.4.45.51.77.91.57.55.99,1.13,1.59,1.56.33.3.66.56,1.03.74.35.16.61.16.9.15.1.01.18-.05.23-.1.08-.06.12-.18.09-.38-.02-.29-.05-.66-.16-.96-.22-.6-.5-1.17-.84-1.76-.56-.86-1-1.42-1.66-2.24ZM129.92,114.83c.47-.88,1.05-1.81,1.67-2.62l.91-1.18c.89-1.16,1.79-2.31,2.75-3.34l.29-.38c.12-.16.28-.3.51-.33.43-.06.81.07,1.1.29.08.06.11.13.19.19.36.37.51.56.89.9.58.53,1.25,1.05,1.9,1.55l.83.64c.38.29.73.56,1.06.86.22.21.5.47.7.71.26.33.43.67.53,1.1.02.14.06.26.08.4.12.74.5,1.41.82,2.05.25.4.44.81.67,1.25.2.46.44.94.66,1.37.64,1.4,1.72,3.22,2.72,4.38.72.85,1.22,1.93,2.29,2.76.3.23.68.35.99.5.05.04.15.03.25.06.03.02.07.01.1.04.11.08.11.25,0,.44-.62,1.24-1.13,1.79-1.91,3.08-.08.16-.2.32-.37.53-.35.46-.8.98-1,1.24-.12.16-.3.28-.45.42-.09.06-.18.07-.29-.01l-.05-.04c-.31-.37-.65-.72-.96-1.09-.28-.3-.62-.65-.92-.97-1.6-1.66-3.29-4.3-3.65-6.29-.14-.93-.34-1.9-.44-2.83-.08-.45-.12-.91-.12-1.34-.07-1.08-.64-2.51-1.63-3.28-.05-.04-.16-.08-.31-.15-.11.09-.24.2-.32.31l-.33.48-.6.78c-.21.27-.44.56-.68.94-.91,1.4-1.27,2.37-2.33,3.74l-.08.11c-.4.46-.67.43-1.08.11-.48-.37-.51-.22-1.97-1.35l-.35-.27c-.48-.37-.92-.75-1.39-1.15-.68-.57-1.31-1.14-1.94-1.67-.11-.13-.22-.17-.17-.34.22-.95.82-1.51,1.41-2.61Z"/>
</svg>