<svg width="262" height="214" viewBox="0 0 262 214" fill="none" xmlns="http://www.w3.org/2000/svg">
<g opacity="0.6">
<path d="M159.258 149.016C103.059 176.528 44.6282 179.927 28.75 156.608C12.8719 133.288 45.5586 92.0799 101.758 64.5672C157.957 37.0544 216.388 33.6554 232.266 56.9752C248.144 80.2949 215.457 121.503 159.258 149.016Z" fill="black"/>
<path d="M130.093 110.422C111.44 119.553 91.7289 120.216 86.0679 111.902C80.407 103.588 90.9395 89.4458 109.593 80.3139C128.246 71.182 147.957 70.519 153.618 78.833C159.279 87.147 148.746 101.29 130.093 110.422Z" fill="white" stroke="black" stroke-miterlimit="10"/>
<path d="M141.429 101.363C142.8 103.02 143.728 100.658 144.927 101.639C145.901 102.423 145.219 103.986 145.887 104.677C146.891 105.706 150.809 104.725 161.507 98.4697C164.234 97.523 165.865 97.3547 166.383 97.9584C167.193 98.9035 165.309 101.734 160.73 106.449C160.467 107.111 160.475 107.592 160.733 107.903C161.385 108.683 163.7 108.358 167.649 106.91C169.387 105.671 171.539 104.439 174.143 103.424C174.902 103.133 175.646 102.866 176.373 102.639C176.793 102.967 177.758 103.804 177.768 104.689C177.777 105.638 176.701 106.132 176.089 106.416C173.349 107.677 170.552 109.078 169.712 109.538C168.64 110.127 164.374 112.426 164.69 116.168C164.747 116.787 164.728 118.186 165.623 118.832C167.724 120.357 172.792 116.292 173.533 115.686C174.28 114.642 175.782 114.618 176.656 115.322C176.893 115.513 177.069 115.75 177.2 116.009C177.522 116.66 177.397 117.368 176.979 117.848C176.654 118.217 176.276 118.822 176.224 119.705C176.181 120.243 176.081 121.278 176.859 122.11C177.585 122.886 178.811 123.192 179.939 122.93C184.526 120.523 189.112 118.116 193.699 115.709C195.454 114.785 198.006 115.411 199.389 117.241C199.634 117.557 199.843 117.908 199.971 118.297C200.523 119.822 200.365 121.775 197.732 123.662C193.002 127.077 187.969 130.651 182.635 134.383C181.578 135.127 179.234 136.792 177.511 135.89C177.043 135.65 176.306 135.057 176.14 134.345C175.925 133.449 176.784 133.06 176.579 132.514C176.271 131.727 174 131.335 172.156 131.349C167.899 131.363 165.083 133.583 164.399 134.095C161.694 136.099 157.18 138.502 149.189 140.102C146.939 139.652 146.224 139.048 146.021 138.549C145.663 137.689 146.776 137.048 147.533 134.591C148.02 133.011 147.753 132.64 147.648 132.53C146.989 131.786 144.992 132.31 144.096 132.555C140.211 133.584 139.423 135.571 137.278 135.052C136.468 134.867 135.245 134.253 134.855 133.345C133.909 131.108 138.266 127.584 142.579 125.844C146.332 124.331 149.552 124.355 149.779 122.368C149.851 121.783 149.682 120.799 149.01 120.303C146.828 118.704 139.852 122.62 137.691 123.84C137.46 123.969 136.582 124.463 135.281 124.47C134.033 124.466 132.232 124.006 131.863 123.152C131.447 122.207 132.881 121.101 134.097 120.167C137.152 117.83 139.572 117.793 139.64 116.176C139.669 115.482 139.266 114.645 138.634 114.162C137.397 113.216 135.422 113.794 130.762 115.736C125.382 117.982 121.119 120.085 118.943 118.919C118.65 118.755 117.783 118.307 117.566 117.588C117.337 116.827 118.026 116.345 117.789 115.975C117.418 115.43 115.339 115.833 114.778 115.946C107.605 117.388 105.007 117.318 103.111 116.92C102.068 116.704 100.145 116.756 99.6122 116.531" fill="white"/>
<path d="M141.429 101.363C142.8 103.02 143.728 100.658 144.927 101.639C145.901 102.423 145.219 103.986 145.887 104.677C146.891 105.706 150.809 104.725 161.507 98.4697C164.234 97.523 165.865 97.3547 166.383 97.9584C167.193 98.9035 165.309 101.734 160.73 106.449C160.467 107.111 160.475 107.592 160.733 107.903C161.385 108.683 163.7 108.358 167.649 106.91C169.387 105.671 171.539 104.439 174.143 103.424C174.902 103.133 175.646 102.866 176.373 102.639C176.793 102.967 177.758 103.804 177.768 104.689C177.777 105.638 176.701 106.132 176.089 106.416C173.349 107.677 170.552 109.078 169.712 109.538C168.64 110.127 164.374 112.426 164.69 116.168C164.747 116.787 164.728 118.186 165.623 118.832C167.724 120.357 172.792 116.292 173.533 115.686C174.28 114.642 175.782 114.618 176.656 115.322C176.893 115.513 177.069 115.75 177.2 116.009C177.522 116.66 177.397 117.368 176.979 117.848C176.654 118.217 176.276 118.822 176.224 119.705C176.181 120.243 176.081 121.278 176.859 122.11C177.585 122.886 178.811 123.192 179.939 122.93C184.526 120.523 189.112 118.116 193.699 115.709C195.454 114.785 198.006 115.411 199.389 117.241C199.634 117.557 199.843 117.908 199.971 118.297C200.523 119.822 200.365 121.775 197.732 123.662C193.002 127.077 187.969 130.651 182.635 134.383C181.578 135.127 179.234 136.792 177.511 135.89C177.043 135.65 176.306 135.057 176.14 134.345C175.925 133.449 176.784 133.06 176.579 132.514C176.271 131.727 174 131.335 172.156 131.349C167.899 131.363 165.083 133.583 164.399 134.095C161.694 136.099 157.18 138.502 149.189 140.102C146.939 139.652 146.224 139.048 146.021 138.549C145.663 137.689 146.776 137.048 147.533 134.591C148.02 133.011 147.753 132.64 147.648 132.53C146.989 131.786 144.992 132.31 144.096 132.555C140.211 133.584 139.423 135.571 137.278 135.052C136.468 134.867 135.245 134.253 134.855 133.345C133.909 131.108 138.266 127.584 142.579 125.844C146.332 124.331 149.552 124.355 149.779 122.368C149.851 121.783 149.682 120.799 149.01 120.303C146.828 118.704 139.852 122.62 137.691 123.84C137.46 123.969 136.582 124.463 135.281 124.47C134.033 124.466 132.232 124.006 131.863 123.152C131.447 122.207 132.881 121.101 134.097 120.167C137.152 117.83 139.572 117.793 139.64 116.176C139.669 115.482 139.266 114.645 138.634 114.162C137.397 113.216 135.422 113.794 130.762 115.736C125.382 117.982 121.119 120.085 118.943 118.919C118.65 118.755 117.783 118.307 117.566 117.588C117.337 116.827 118.026 116.345 117.789 115.975C117.418 115.43 115.339 115.833 114.778 115.946C107.605 117.388 105.007 117.318 103.111 116.92C102.068 116.704 100.145 116.756 99.6122 116.531" stroke="black" stroke-miterlimit="10"/>
<path d="M118.294 95.6364C116.142 96.6901 113.837 96.7223 113.147 95.7084C112.456 94.6945 113.642 93.0184 115.794 91.9647C117.946 90.9111 120.251 90.8788 120.941 91.8927C121.631 92.9066 120.446 94.5827 118.294 95.6364Z" fill="black"/>
</g>
</svg>
