<?xml version="1.0" encoding="UTF-8"?>
<svg id="Layer_1" data-name="Layer 1" xmlns="http://www.w3.org/2000/svg" viewBox="0 0 512.41 559.57">
  <defs>
    <style>
      .cls-1 {
        fill: #77b09f;
      }

      .cls-2 {
        fill: none;
        stroke: #3a140b;
        stroke-miterlimit: 8.72;
        stroke-width: 6px;
      }
    </style>
  </defs>
  <path class="cls-1" d="M471.12,388.68c-10.77-7.39-22.91-12.54-32.22-22.63,0,.06,0,.13,0,.19-5.67-3.8-38.47-25.02-78.24-14.47-27.67,7.34-61.63,30.84-65.09,67.06-3.16,33.04,20.95,56.63,24.33,59.83,31.66,30.01,90.92,33.57,126.24,0,35.77-34.01,25.72-85.92,24.99-89.42v-.57Z"/>
  <path class="cls-1" d="M473.52,19.89c-112.21,18.54-224.42,37.08-336.63,55.62l3.48,318.23,37.8,19.17c-6.67-48.71-9.55-122.89-2.92-243.92,88.32-11.83,176.65-23.67,264.97-35.51,0,.01,0,.03,0,.04,9.2-9.05,20.86-15.63,32.7-21.25.2-30.8.4-61.59.6-92.39Z"/>
  <path class="cls-2" d="M161.51,70.26c-8.21,1.75-16.41,3.5-24.62,5.25l32.26,328.51c-9.56-6.18-27.45-15.82-51.33-17.6-7.31-.54-66.16-3.99-90.93,39.6-20.66,36.37-4.65,82.71,22,107.06,24.61,22.48,55.01,23.23,64.53,23.47,9.68.24,46.76-.17,73.33-26.4,20.41-20.15,29.91-46.51,27.86-68.93-8.8-96.31-17.6-192.61-26.4-288.92,84.08-14.67,168.17-29.33,252.25-44,4.89,70.4,9.78,140.79,14.67,211.19-7.77-4.43-30.07-15.78-58.66-11.73-29.14,4.13-59.97,23.57-71.86,57.2-10.32,29.17-3.82,61.81,14.67,83.59,32.19,37.92,95.82,37.15,133.46,7.33,30.4-24.08,35.58-60.57,36.66-70.4-11.73-133.95-23.47-267.89-35.2-401.84-104.23,22.21-208.46,44.41-312.69,66.62"/>
  <path class="cls-1" d="M178.16,412.91c.12.89.24,1.77.37,2.64,1.78,12.47,6.76,43.98-9.2,74.95-4.1,7.96-21.45,38.9-57.86,49.31-35.45,10.14-82.76-.97-102.57-36.82-15.36-27.79-6.46-56.45-5.13-60.53,11.53-35.18,46.6-54,76.79-56.5,29.67-2.46,52.05,11.04,59.89,16.32-.03-2.85-.06-5.69-.09-8.54l37.8,19.17Z"/>
  <path class="cls-1" d="M471.12,388.68c.6-92.13,1.2-184.27,1.8-276.4-11.85,5.62-23.5,12.2-32.7,21.25-.44,77.51-.88,155.01-1.31,232.52,9.31,10.1,21.45,15.24,32.22,22.63Z"/>
</svg>