<?xml version="1.0" encoding="UTF-8"?>
<svg id="Layer_1" data-name="Layer 1" xmlns="http://www.w3.org/2000/svg" xmlns:xlink="http://www.w3.org/1999/xlink" viewBox="0 0 242.01 437.58">
  <defs>
    <style>
      .cls-1, .cls-2 {
        fill: none;
      }

      .cls-2 {
        stroke: #3a140b;
        stroke-miterlimit: 8.72;
        stroke-width: 6px;
      }

      .cls-3 {
        fill: #fff;
        stroke: #fff;
        stroke-miterlimit: 3.49;
        stroke-width: .87px;
      }

      .cls-4 {
        fill: #f0047f;
      }
    </style>
    <clipPath id="clippath">
      <rect class="cls-1" x="411.76" y="-1655.64" width="1370.75" height="778"/>
    </clipPath>
    <mask id="mask" x="-248.9" y="-2738.79" width="2519.22" height="2775.72" maskUnits="userSpaceOnUse"/>
    <mask id="mask-1" x="-262.69" y="-3205.87" width="2533" height="3758.22" maskUnits="userSpaceOnUse">
      <g id="mask1_314_202" data-name="mask1 314 202">
        <path class="cls-3" d="M898.44-3020.42c62.23-78.03,134.19-132.53,206.99-184.83,192.53,311.22,386.52,620.26,580.5,929.28l.04.07c194.01,309.05,388,618.1,580.55,929.33-121.77,150.37-238.5,299.83-330.92,493.46-22.33,46.81-43.88,95.24-65.44,143.96-1.73,3.92-3.46,7.83-5.2,11.75-19.83,44.85-39.74,89.85-60.35,133.98-44.84,95.99-93,187.83-151.05,264.94-56.75,75.39-123.68,127.26-193.24,172.22-27.96,18.07-56.33,35.02-84.65,51.94-6.91,4.13-13.82,8.26-20.72,12.4-35.15,21.09-70.02,42.54-103.65,66.41-157.25,111.62-261.16,309.19-366.26,509.03-6.65,12.64-13.3,25.29-19.97,37.93-26.73-43.19-53.45-86.4-80.17-129.59-26.85-43.41-53.69-86.8-80.54-130.2-45.56-73.63-96.03-135.02-147.66-197.81-4.19-5.1-8.39-10.2-12.59-15.32-80.97-98.65-152.8-220.69-222.73-339.52-13.55-23.03-27.03-45.93-40.49-68.52-30.73-51.56-55.94-108.93-81.21-166.4-10.55-23.99-21.1-48-32.07-71.61-30.76-66.25-67.35-124.81-104.02-183.49-6.66-10.65-13.32-21.31-19.95-32.02-101.94-164.79-203.88-329.59-305.83-494.35,6.77-13.32,13.51-26.65,20.25-39.98,103.15-203.94,205.06-405.43,365.21-512.75l-.2-.49.2.49c33.64-22.55,68.65-42.49,104.01-62.08,6.95-3.85,13.91-7.68,20.87-11.52,28.49-15.69,57.07-31.44,85.22-48.4,70.06-42.22,137.42-91.98,193.88-167.27,58.94-78.61,99.44-180.38,133.67-288.11,16.02-50.43,30.67-102.17,45.2-153.47.99-3.5,1.98-7,2.97-10.49,15.5-54.72,30.96-108.8,47.88-160.08,35.96-108.99,78.76-210.3,141.47-288.92Z"/>
      </g>
    </mask>
  </defs>
  <path class="cls-4" d="M226.88,102.22c-11.17-20.22-22.49-21.08-56.52-51.71C148.53,30.86,132.54,12.62,122.25,0c-.12,29.62-.24,59.23-.37,88.85,1.07-.02,2.63-.15,3.48-1,6.91,0,12.85,3.89,19.74,3.99v-.45c7.85,1.25,20.71,4.38,33.67,13.23,29.17,19.93,35.08,52.68,36.08,58.93,5.74,36.15-13.48,64.36-9.62,66.14,3.11,1.43,17.3-16.09,25.25-38.48,3.62-10.18,16.83-51.99-3.61-88.99Z"/>
  <path class="cls-2" d="M193.03,264.77c6.12,3.14,26.62-18.4,37.28-43.29,16.52-38.57,4.88-74.6,2.41-81.78-2.13-6.16-9.74-26.49-46.9-61.33-19.62-18.4-50.27-43.47-93.8-66.14,9.22,97.41,18.44,194.82,27.66,292.23-6.57-2.43-38.16-13.36-70.95,2.41-5.45,2.62-44.56,21.42-45.7,57.72-1.22,39,42.58,60.43,44.5,61.33,28.5,13.42,71.06,13.43,96.21-15.63,18.89-21.83,16.31-51.89,14.43-73.36-5.89-67.2-11.48-137.42-18.04-220.07,6.89,2.76,16.34,7.24,26.46,14.43,13.97,9.93,24.94,22.02,30.06,30.06,24.6,38.67-13.24,98.49-3.61,103.42Z"/>
  <path class="cls-4" d="M121.89,88.85c-.28,67.39-.56,134.79-.84,202.18-5.99-4.6-16.61-11.47-31.27-14.43-3.45-.7-44.49-8.27-69.75,21.65-2.03,2.4-23.65,28.89-13.23,60.13,10.48,31.41,44,39.59,49.31,40.89,27.88,6.8,63.02-2.37,80.57-30.06,15.03-23.71,9.79-49.36,8.42-55.32V91.84c-6.89-.1-12.83-3.99-19.74-3.99-.85.85-2.41.98-3.48,1Z"/>
</svg>