<?xml version="1.0" encoding="UTF-8"?>
<svg id="Layer_1" data-name="Layer 1" xmlns="http://www.w3.org/2000/svg" viewBox="0 0 741.59 730.29">
  <defs>
    <style>
      .cls-1 {
        fill: #a31280;
      }
    </style>
  </defs>
  <path class="cls-1" d="M117.51,8.18c3.15,5.13,1.58,5.41,2.37,10.88.18,1.24,2.48,7.72,3.22,7.8.36.04,2.36-1.24,3.74-1.2,4.02.11,8.23,11.23,10.5,14.19,1.46,1.91,12.82,8.48,15.43,9.25,12.28,3.6,21.38.95,32.94,9.01,1.35.94,2.37,2.61,3.78,3.63,8.14,5.85,18.32,12.84,21.25,23.16,5.31,18.73,6.7,34.86,19.41,50.91,5.89,7.43,9.15,10.36,18.36,13.1,5.69,1.69,9.15,1.56,14.57,2.04,9.13.8,20.98,15.17,25.58,22.59,6.27,10.11,9.37,22.5,12.16,34.1,1.37,5.7,1.9,9.84,4.46,15.28,2.88,6.12,7.12,4.88,12.2,6.92,4.53,1.82,13.08,5.5,16.87,8.42,3.39,2.61,3.87,5.93,8.96,5.16,7.15-1.09,14.72-3.68,22.18-1.88,2.94-1.22,6.48-.04,9.3-.57,2.93-.55,1.68-2.81,2.34-4.45,2.87-7.17,3.65-9.1,2.95-17.46-.98-11.56-5.64-24.93-4.98-36.39.35-6.01,3.74-24.44,6.05-29.73,1.01-2.31,10.24-17.14,11.86-18.99,5.68-6.47,14.45-10.13,20.99-15.4s20.77-21.23,23.89-29.16c1.83-4.65,1.59-9.88,2.75-13.9.18-.62,4.56-6.02,5.41-6.31,4.92-1.72,10.59.15,11.6,5.72,1.67,9.2,3.66,25.33,1.85,34.25-3.04,14.94-16.57,22.37-23.55,35.05-1.92,3.49-3.55,8.33-5.19,12.08-3.4,7.77-6.22,9.95-4.26,19.46,2.38,11.56,12.89,17.57,12.02,32.09-.78,13.02-7.88,21.22-14.28,31.37-.6.96-4.08,7.62-4.09,8.25,5.56.8,10.47,4.16,15.3,6.92,3.15,1.8,3.63,2.25,6.33,4.16,1.98,1.4,11.68,8.4,13.49,7.07.27-.2.23-1.5.63-1.97,10.82-12.96,27.98-28.88,42.66-37.09,12.42-6.95,25.83-8.13,39.76-8.4,22.1-.44,28.12-4.76,42.87-20.62,13.31-14.32,24.35-32.35,38.23-45.66,9.12-8.75,18.97-18.32,28.86-26.22,5.47-4.37,23.87-12.74,30.65-12.34,3.97.23,8.23,2.59,12.04,3.47,5.2,1.2,11.53,1.05,16.8,2.88,8.98,3.12,11.25,6.46,22.38,7.84,3.17.39,11.83-1.06,11.44,3.99-.13,1.67-2.68,2.54-3.03,3.87-.86,3.27,3.52,8.95-4.73,8.84-14.24-.18-23.86.32-37.81,4.08-9.47,2.56-31.74,19.48-37.04,27.73-3.93,6.13-5.3,15.11-8.25,21.36-4.92,10.43-15.97,25.85-24.53,33.46-15.18,13.5-43.88,14.11-62.26,25.95-.97.62-10.6,9.21-11.06,9.92-2.81,4.31-3.81,13.32-5.99,16.84-1.67,2.71-13.65,14.67-16.35,16.35-3.85,2.4-9.02,2.47-13.1,3.56-5.84,1.56-13.13,3.27-18.66,5.4-2.43.94-8.65,3.39-9.23,6.09-.47,2.18,3.1,10.06,3.83,12.89,1.89,7.35,2.53,13.81,5.42,21.11,1.26,3.19,3.79,4.29,1.06,8.49-1,1.54-3.1,1.28-1.03,3.81,1.71,2.09,7.33,3.07,8.89,4.68,1.01,1.05,2.58,5.47,3.91,6.89,1.58,1.69,12.2,9.93,14.19,10.79,10.54,4.54,24.56-2.21,35.28-3.19,14.16-1.29,24.53-2.11,35.75,7.41,7.93,6.73,14.45,13.22,24.57,17.37,24.75,10.15,50.88-6.89,75.38,10.98,2.84,2.07,14.15,12.69,15.43,15.41,1.89,4.03,3.57,12-2.63,12.86-.39.05-5.18-1.23-5.68-1.46-1.61-.76-5.48-5.72-7.26-6.31-10.13-3.37-25.53-5.78-35.81-2.78-14.81,4.32-42.79,17.73-57.46,9.07-1.76-1.04-3.54-3.84-5.29-5.2-5.9-4.57-12.08-8.43-19.41-10.2-5.54-1.34-11.89-2.41-17.43-.73-4.15,1.25-8.51,5.71-12.03,6.48-2.42.52-11.21,1.65-13.3,1.23-2.44-.5-3.67-2.61-5.56-3.69-8.59-4.87-17.5-9.15-25.45-15.27-1.51-1.16-2.29-3.66-5.44-3.7-3.77-.05-2.39,1.74-3.32,3.51-3.69,7.03-6.34,14.29-10.99,21.09-1.41,2.07-8.02,7.89-5.83,10.22,1.06,1.12,7.15,4.11,9.2,5.6,2.7,1.97,5.98,4.66,8.65,6.77.68.54,6.39,11.3,6.66,12.46,1.76,7.61,2.6,12.07,6.07,19.22,2.48,5.11,8.18,9.25,12.64,12.65,4.69,3.57,10.02,6.55,15.19,9.49,13.3,7.55,18.29,8.85,26.43,22.92,1.19,2.06,2.36,6.19,3.72,8,10.42,13.91,8.56,28.96,13.4,44.59.68,2.18,2.32,3.34,2.77,4.64,1.3,3.79,1.19,4.63,4.52,7.82,3.6,3.45,3.68,3.77,6.73,7.46,2.44,2.95,13.42,12.12,13.58,14.86.09,1.57-2.92,3.6-4.02,3.71-2.62.27-10.89-10.17-14.04-11.62-3.98-1.44-9.64-.85-13.45-1.98-1.44-.43-13.56-8.76-15.08-10.21-14.44-13.8-16.74-46.66-38.3-50.53-12.72-2.28-18.06,1.6-29.82-7.81-16.23-12.99-11.23-37.74-31.09-47.86-2.94-1.5-6.56-1.84-9.4-2.94-7.32-2.83-13.77-7.29-19.79-12.28-2.06-.39-10.88,6.54-13.61,7.17-2.86.66-4.85-.56-7.25-.51-2.24.05-4.69,1.49-6.87,1.81-5.36.79-10.81,1-16.2,1.37-1.37.83.65,15.13-.21,17.99-.43,1.44-4.59,5.06-5.67,6.67-2.35,3.52-3.19,7.83-5.18,11.47-2.49,4.56-6.17,8.02-8.12,13.47-4.05,11.3-1.45,31.97,1.98,43.61,1.8,6.08,5.12,12.26,6.44,18.85,2.76,13.76.82,29.82-6.12,42.25-.93,1.67-3.99,3.13-5.42,5.07-3.44,4.68-6.74,15.51-8.36,21.24-4.08,14.41-5.3,26.54-4.61,41.69.13,2.81,1.27,5.54,1.15,8.52-.25,6.34-1.15,8.74-8.17,7.74-4.98-.7-3.99-3.3-6.01-6.32-9.06-13.53-11.63-20.73-14.05-37.15-1.78-12.1,1.77-23.61,4.44-34.96,1.91-8.13,5.01-16.52-1.07-23.92-5.44-6.62-19.44-15.91-20.63-24.41-1.54-11.01.23-16.03,5.18-25.56,2.45-4.71,6.47-9.73,8.26-14.56,3.08-8.28,1.26-32.15-4.1-39.53-2.43-3.35-2.29-2.94-4.33-6.77-1.14-2.15-3.63-4.94-3.81-7.36-.08-1.03,1.12-5.21,1.54-6.39.9-2.55,3.42-5.75,3.86-7.86,1.11-5.39-2.23-3.35-5.58-4.01-3.08-.61-11.41-3.39-14.62-4.51-1.5-.52-3-2.67-4.52-3.5-2.07-1.12-4-1-6.03-1.99-2.27-1.1-9.94-7.93-11.88-7.65-2.34,2.6-6.44,2.52-9.01,3.95-7.69,4.29-13.35,18.08-13.64,26.51-.3,8.67-1,15.16-3.33,23.76-4.2,15.48-20.82,29.32-35.85,33.85-11.08,3.34-20.29,3.96-31.42,4.98-6.97.64-13.96,1.3-20.96,1.86s-22.38-4.13-28.66-.9c-11.35,5.83-21.75,10.89-33.59,16.38-4.33,2-9.22,6.75-14.21,6.07-4.07-.55-4.79-4.02-4.74-7.7.07-5.21,6.06-3.76,8.13-6.73.97-1.39.69-5.19,1.99-6.95,5.52-4.19,13.54-7.59,18.9-11.64,2.42-1.83,3.03-4,4.73-5.76,9.44-9.78,26.11-11.82,38.63-15.66,3.77-1.16,8.07-1.52,11-2.57,2.87-1.03,6.46-5.29,9.57-6.5.82-1.3-.72-2.79.11-4.76,1.61-3.85,9.45-10.53,10.51-13.59,2.03-5.86-.56-9.71-.52-14.66.08-9.35,4.21-15.17,11.47-20.66,5.19-3.93,10.51-3.48,15.87-6.33,5.62-2.99,11.14-9.73,14.56-15.05,3.41-5.3,6.32-14.86,9.95-18.87,1.02-1.12,5.11-2.68,4.84-4.33-3.39-7.85-6.73-15.69-10.71-23.24l-2.22-12.28c-5.42-1.27-11.07-3.42-16.11-5.79-3.2-1.51-4.74-2.45-7.21-4.49-8.65-7.15-19.87-14.59-31.23-16.29-15.52-2.31-27.77,2.71-42.6,4.83-8.99,1.28-19.62,1-28.26,2.58-13.62,2.51-18.6,6.1-33.51,3.81-10.78-1.66-10.27-3.51-18.95-8.19-18.59-10.02-26.02-12.22-41.01-28.08-2.38-2.52-6.11-2.91-6.78-7.41-.91-6.05,5.41-11.34,10.78-6.46,4.07,3.68,5.65,7.31,11.18,10.41,11.88,6.66,32.95,12.34,45.67,5.78,7.46-3.85,12.13-11.19,17.46-17.09,7.5-8.31,24.88-21.13,36.16-21.88,1.12-.07,14.25,1.12,15.2,1.36,4.3,1.1,12.29,5.85,16.49,7.57,9.2,3.76,17.59,5.13,27.15,1.53.27-1.73-1.32-2.89-1.23-4.57.38-6.76,10.7.17,13.73-.48,7.22-3.64,15.72-8.12,24.1-7.85.66.02,9.79,1.91,10.27,2.12.92.41,2.32,2.56,3.42,3.37,2.29,1.69,12.36,7.97,14.65,8.79,4.08,1.47,2.5-.85,4.5-3.8,2.54-3.74,10.44-11.84,11.95-15.32.54-1.24.36-2.83.84-3.97,1.97-4.75,7.01-6.93,10.26-10.76.14-.82-8.02-9.95-9.12-11.72-.69-1.1-4.48-8.46-4.72-9.47-2.87-12.11.79-23.33-5.53-35.8-11.65-22.96-50.4-41.66-70.34-59.21-3.8-3.35-13.64-17.03-15.43-21.58-1.7-4.32-1.51-14.06-2.3-19.29-1.84-12.2-5.21-25.67-11.67-36.44-6.21-10.35-12.84-11.55-21.17-18.92-3.81-3.37-3.51-3.32-7.93-6.26-7.07-4.7-15.29-15.42-17.02-23.69-.85-4.06-.56-9.57-1.29-13.51-.41-2.2-3.22-5.4-3.01-8.71.13-2.06,5.52-5.94,5.52-7.35,0-1.01-8.78-9.25-.02-10.54,4.4-.65,6.89,4.88,8.89,8.13ZM193.74,104.04c.49-1.39-3.53-5.72-4.31-4.93.33,2.05,2.8,3.69,4.31,4.93ZM702.07,132.41c.57-.76-4.93-4.26-3.7.62l3.7-.62ZM390.53,215.07c.76-2.13,2.42-3.66,1.85-6.16-1.07.59-1.9,3.16-2.2,4.28-.16.6-.79,2.04.34,1.88ZM580.53,234.81l-.3-2.46c-1.35.95-1.2,1.9.3,2.46ZM497.88,247.15c-1.17-.2-2.05.72-1.84,1.84l1.84-1.84ZM489.86,251.47c-2.45.54-5.32,2.24-6.79,4.31,2.28-1.02,5.42-2.19,6.79-4.31ZM370.79,253.93c-1.99.33-4.4.36-6.32.78-.6.13-1.85.22-1.7,1.06,2.1-.07,4.24.22,6.33-.16,1.07-.2,2.04-.26,1.68-1.68ZM299.85,260.1l-1.53-4.31c-1.66.98.51,3.78,1.53,4.31ZM456.12,300c-1.05-1.23-1.83-4.66-3.32-5.63-.66-.43-1.73-.31-2.37-.72-11.5-7.44-16.69-15.45-31.36-18.61-8.37-1.8-17.33-3.26-25.91-4.93-14.05-2.74-24.13-1.19-37.94,1.86-21.53,4.75-36.84,14.18-54.7,25.49-1.49.95-7.02,3.83-7.32,4.13-.27.27.01,1.24-.55,1.7-1.22.99-5.64,3.37-6.09,4.3-.6,1.23.22,2.23.02,3.16-.16.75-2.99,3.88-3.68,4.28-.9.53-1.6-.22-2.82.81-1.5,1.27-6.58,8.62-6.76,10.55,2.71-.69.35,1.42-.11,2.36-12.88,26.66-19.22,69.88-7.52,97.8,10.35,24.7,28.13,38.95,54.38,44.32,17.39,3.56,37.42,4.71,55.31,1.99,2.2-.33,3.47-2.25,5.58-2.47,2.49-.27,4.97.89,7.97.6,18.41-1.81,35.25-14.24,50.54-23.48,5.01-3.03,14.18-6.75,17.35-11.64,3.97-6.11,8.29-12.01,11.95-18.27,4.96-8.48,1.89-15.73,2.54-24.6.29-3.98.57-7.08,4.95-8.3l1.55,6.78c.81-.67,1.26-1.11,1.52-2.18.43-1.78,1.8-7.89,1.82-9.29.02-1.76-1.1-3.38-1.08-4.88.03-1.96,1.31-3.67,1.14-6.76-.18-3.23-1.86-5.26-2.33-7.55-.88-4.31-1.16-9.35-1.99-13.74-.77.2-1.16,3.49-1.17,4.07-.02,1.48.85,2.98.55,4.56-5.66-2.68-3.65-8.64-3.93-13.16-.88-14.38-2.66-23.57-10.14-36-2.44-4.06-3.96-4.06-6.09-6.55ZM323.29,273.67c-.85-.19-1.64.33-1.85,1.22h1.85s0-1.22,0-1.22ZM320.21,275.53c-3.61.61-7.15,3.24-9.87,5.54,3.26-1.47,7.24-3.18,9.87-5.54ZM262.23,332.28c-1.6-.32-1.08.34-1.55,1.2-1.07,1.97-2.39,4.57-2.15,6.81,2.4-1.8,1.71-5.64,3.69-8.01ZM103.68,335.98c-1.63.11-4.18-.68-4.93,1.22,1.63-.11,4.18.68,4.93-1.22ZM195.6,354.48c-.77-.41-2.15.99-1.85,1.22.77.41,2.15-.99,1.85-1.22ZM88.26,365.58c-3.49.06-6.66.69-10.21.64-4.12-.05-8.57-1.2-12.93-.64-.9.11-1.91.47-.91,1.23,7.83.11,15.32.98,23.14,0,.84-.11,1.96-.44.92-1.23ZM592.87,400.74c1.46-1.41-1.6-4.37-2.46-3.7-.1.08-.73,2.04-.37,2.49.46.57,2.08.77,2.83,1.21ZM597.81,402.58c.3-.23-1.08-1.63-1.85-1.22-.3.23,1.08,1.63,1.85,1.22ZM687.26,424.79c-.21-.89-1-1.41-1.85-1.22v1.23s1.85,0,1.85,0ZM257.9,461.19l-.3-1.84c-.65.56-1.13.94-.93,1.84h1.23ZM248.04,481.55c-1.52-.2-2.41,1.18-.92,1.84.31.14.55-1.44.92-1.84ZM325.14,508.68v-2.46h-.6v2.46h.6ZM241.24,508.69c-1.28-.91-8.03,5.87.59,3.67.31-.35-.44-3.56-.59-3.67ZM521.32,540.14l-3.08-3.08v3.09s3.08,0,3.08,0ZM358.45,557.41l.62-7.4c-1.67,1.12-2.67,6.26-.62,7.4ZM359.69,569.76h-1.23c-.05,1.31-.26,2.82.93,3.69l.3-3.69Z"/>
  <path class="cls-1" d="M445.85,431.37c-1.96,2.13-2.99,3.16-5.07,5.72-24.71,30.44-59.63,35.42-97.45,33.37-11.82-.64-23.86-1.54-34.64-6.69-3.96-1.89-8.27-5.77-12.37-7.67-.99-5.25-1.2-2.57-3.87-3.85-.26-.13-2.77-3.25-3.46-3.91-.88-.85-2.45-1.26-3.32-2.26-1.4-1.61-1.22-3.9-2.18-5.22-1.54-2.11-3.88-5.36-5.58-7.37-.79-.93-2.5-1.45-3.01-2.55-.85-1.84-.57-5.48-1.09-7.54-1.04-4.12-2.06-8.28-3.09-12.33-3.67-14.42-8.41-20.88-4.48-36.88,2.4-9.76,4.71-11.13,9.37-18.68.73-1.18.11-4.61,3.53-2.21,2.1,1.47-.77,5.69-1.31,7.82-.82,3.28-1.95,7.25-2.61,10.34-4.22,19.77,4.85,35.85,9.07,55.03,9.47,13.19,18.76,24.85,35.19,29.59,22.58,6.51,66.06,4.41,87.53-5.27,15.18-6.84,20.93-14.23,30.43-26.94,11.04-14.77,10.85-18.11,15.71-35.48,1.26-4.5,3.64-7.81,4.05-12.61.78-9.1-.89-28.68-4.52-36.85-12.19-27.43-33.28-45.73-62.92-51.82-2.14-.44-3.76-1.92-6.38-2.26-9.63-1.25-22.05.39-31.44,2.35-16.24,3.39-25.61,9.25-38.18,19.81-6.75,5.67-7.44,13.68-11.23,20.79-.5.94-1.63.96-1.93,1.8-.12.33-1.2,5.88-1.21,6.2,0,.83,1.01,1.33.79,2.02-.54,1.7-3.83,3.29-3.95,7.07-.03.92.79,2.09.59,3.01-.12.58-1.29.62-1.52,1.02-.64,1.12-1.76,8.91-2.05,10.89-.24,1.63,1.91,4.6-2.02,3.32-.12,2.06,1.45,3.79,1.29,5.87-.29,3.82-1.39.84.13,5.98,1.65,5.61-.23,6.12-.08,9.26.19,4.22,9.01,26.35,11.49,30.53,2.63,4.42,16.82,16.39,21.5,19.21,29.49,17.75,72.13,5.96,88.79-23.29,13.27-23.31,27.86-46.69,12.1-73.27-5.12-8.63-13.57-15.08-21.4-21.16-4.59-3.56-8.18-6.17-14.19-6.66-7.4-.6-16.51-1.55-23.91.02-10.82,2.3-15.87,6.47-24.31,12.09-2.42,1.61-5.7,2.32-8.18,4.16-2.93,2.16-10.08,11.24-11.33,14.58-3.2,8.52-5.73,18.77-6.01,27.91-.15,4.88-.22,12.55.03,17.28.3,5.67,7.14,18.63,10.84,23.1.83,1,2.38,1.17,3.38,2.17,3.75,3.78,8.81,9.31,14.01,11.28,6.27,2.37,19.58,3.33,26.35,2.62,10.79-1.12,28.68-16.73,33.88-25.96,9.91-17.6,12.52-32.45.62-49.85-7.06-10.32-8.84-8.92-18.88-14.27-.75-.4-1.27-1.73-2.62-2.48-3.55-1.96-17.25-3.87-21.62-3.65-6.09.3-13.89,6.13-17.24,11.13-1.32,1.97-2.97,5.13-4.32,7.4-6.46,10.82-7.52,15.58-4.25,28.23,4.76,18.41,14.44,32.44,35.47,24.58,1.69-.63,9.99-5.7,10.84-6.74.43-.53.31-1.82.85-2.53,6.27-8.27,8.15-13.54,6.71-24.14-.57-4.17-5.38-10.67-8.91-12.68-1.28-.73-10.03-3.79-11.39-3.93-1.08-.11-8.95-.44-9.57-.36-.48.06-6.59,3.48-6.73,3.84.04,3.19-1.94,5.88-2.26,8.81-.23,2.06-.31,10.44.33,12.01.18.45,4.06,6.1,4.43,6.2,1.01.27,7.17.15,8.47-.05,2.53-.39,8.1-5.74,7.75-8.23-.1-.7-.62-1.46-1.02-2.06-2.63-3.86-8.08.96-12.81-3.91-2.69-2.77-1.3-8.1,1.93-9.07,2.56-.77,11.97,1.23,14.59,2.43,4.6,2.12,9.74,8.42,9.01,13.73-.83,6.05-7.02,14.74-12.96,16.67-2.8.91-12.9.81-16.02.05-3.94-.96-10.09-4.28-11.4-8.34-3.31-10.25-3.65-27,4.02-35.48,1.14-1.26,9.07-6.37,10.49-6.78.49-.14,4.03,1.22,5.42,1.35,4.29.38,10.81-.55,14.61.82,2.41.87,5.71,4.13,8.2,5.37,3.26,1.63,5.68.32,7.81,3.91,4.19,7.06,6.04,12.98,7.09,21.28.57,4.56-1.25,8.2-3.11,12.22-5.68,12.3-10.05,20.42-22.75,25.98-16.63,7.28-27.61,3.46-38.53-10.21-8.15-10.2-5.95-14.48-10.84-24.14-.38-.75-1.59-.81-1.74-1.45-.22-.91,1.02-6.96,1.14-8.61.56-7.9,1.01-15.58,5.89-22.48,1.11-1.57,2.94-2.22,3.9-3.5,1.38-1.86,2.1-5.55,3.5-7.6,6.01-8.81,18.9-14.44,29.5-13.41,1.13.11,2.77,1.38,4.45,1.61,11.52,1.62,18.57,4.28,28.23,10.63,6.58,4.33,14.73,14.12,18.21,21.27.67,1.38,4.25,15.88,4.43,17.77.3,3.1-.58,9.75-1.42,12.84-1.66,6.13-3.83,7.37-4.81,14.87-1.48,11.41-30.34,34.54-41.04,37.36-7.01,1.85-15.64,1.54-22.75,1.3-3.3-.11-19.2-7.15-21.33-9.57-4.16-4.75-9.43-9.06-13.57-14.21-3.37-4.2-11.05-19.01-11.14-24.67-.1-5.98-.42-15.28.03-20.99.2-2.6,1.36-5.28,1.53-7.59.17-2.3-.74-5.36-.27-7.8.26-1.35,3.08-5.51,3.66-7.44,1.01-3.34.55-6.68,2.25-10.09.83-1.67,11.67-15.33,12.86-16.13,1.51-1.01,4.97-2.04,6.73-3.14,5.92-3.7,10.55-6.41,16.55-9.81.75-.42.87-1.59,1.47-1.73.48-.12,2.82.63,4.26.54,8.56-.52,18.67-4.39,27.8-4.03,17.59.68,36.51,15.11,46.81,28.75,8.11,10.73,6.68,15.43,10.42,27.21.87,2.75,2.38,3.74,2.3,7.55-.34,16.75-10.44,35.16-18.29,49.61-16.55,30.48-62.68,51.55-95.17,36.09-2.27-1.08-5-3.35-7.44-4.28-.95-.36-2.74-.09-3.05-.37-.21-.19.08-1.18-.2-1.57-.24-.34-5.79-3.55-6.95-4.51-2.58-2.15-4.3-5.05-6.47-7.1-2.66-2.52-6.98-5.3-9.3-7.98-7.23-8.34-12.34-28.72-15.07-39.83-.98-3.97-1.63-5.49-1.33-10.05.6-9.37,3.41-21,5.48-30.17,5.91-26.28,20.61-50.94,47.3-60.03,1.23-.42,2.68-.06,3.9-.42,2.39-.71,5.87-4.15,8.32-4.64,4.46-.88,15.25-1.71,20.19-2.02,25.09-1.59,54.37,11.37,73.43,27.16,7.77,6.44,14.84,18.48,19.55,27.33,6.25,11.77,6.27,12.13,6.65,25.38.22,7.67,3.09,14.56,1.72,23.32-.43,2.74-2.37,5.41-3.12,7.98-2.29,7.84-4.11,16.54-6.57,24.27-1.68,5.28-8.77,15.67-12.58,19.81Z"/>
  <rect class="cls-1" x="260.38" y="392.11" width=".6" height="4.31"/>
</svg>