<?xml version="1.0" encoding="UTF-8"?>
<svg id="Layer_1" data-name="Layer 1" xmlns="http://www.w3.org/2000/svg" viewBox="0 0 1124.55 1141.32">
  <defs>
    <style>
      .cls-1 {
        fill: #ef0a7c;
      }
    </style>
  </defs>
  <path class="cls-1" d="M492.8,486.77c7.55-6.59,16-12.12,25.17-16.23,27.26-12.24,60.52-11.26,86.12,4.15,50.73,30.55,58.54,121.11-.23,148.11-27.72,12.73-61.31,7.94-87.8-7.17-11.48-6.55-22.4-15.57-26.86-28.01-2.87-7.99-2.82-16.74-1.81-25.17,3.65-30.56,21.5-60.74,49.92-72.57s66.47.08,77.8,28.7c5.33,13.45,4.55,28.63,1.23,42.71-1.98,8.4-4.95,16.83-10.68,23.28-6.35,7.15-15.69,11.26-25.18,12.36-18.47,2.15-38.2-7.74-46.09-24.58-7.88-16.84-2.03-39.39,13.89-48.99,15.92-9.61,39.74-3.27,47.52,13.62-3.23-1.88-6.45-3.77-9.68-5.65-15.92-12.12-43.01-2.59-47.85,16.83-4.71,18.92,12.11,39.21,31.57,40.42,19.46,1.21,37.75-14.41,42.18-33.4s-3.65-39.62-17.99-52.83c-6.76-6.23-14.97-11.08-23.98-12.9-14.48-2.93-29.78,2.35-41.31,11.58-11.53,9.23-19.68,22.06-25.97,35.42-7.11,15.1-12.07,32.84-5.72,48.27,12.56,30.49,56.95,41.03,86.22,35.91,12.78-2.24,25.33-7.39,34.68-16.39,12.17-11.71,17.86-28.96,18.46-45.83,1.88-52.3-33.92-98.6-90.11-89.8-30.3,4.75-56.66,25.99-71.32,52.93-13.57,24.94-17.73,55.52-8.28,82.3,26.78,75.88,158.09,75.3,196.56,9.88,21.75-36.97,16.28-83.75-7.8-116.86-11-15.12-47.27-49.44-65.72-52.72-4.61-.82-7.78,1.39-10.89,1.07-8.67-.9-18.18-6.08-27.22-5.26-9.95.89-15.23,1.62-25.18,1.9-1.15.03-.81,3.25-2.53,3.8-29.13,9.27-52.42,30.13-69.92,55.68-23.78,34.73-22.96,72.86-28.44,112.99-3.22-2.2-2.78-5.28-3.02-8.59-5.31-73.15,30.88-152.61,108.63-167.97,40.84-8.07,85.3,5.3,114.92,34.56,49.76,49.15,52.62,136.44-8.33,177.68-82.25,55.65-213.69-6.14-177.52-114.16,6.3-18.81,17.66-36.01,32.56-49.03ZM652.56,840.8c-7.2-24.05-34.33-115.26-61.23-119.19-11.86,37.53,19.05,104.35,28.04,141.87,17.24,71.94,34.54,144.12,60.78,213.29,8.3,21.87,17.47,43.41,27.5,64.55,3.92-3.41,4.36-10.1.91-13.99,6.09,1.64,12.11-4.25,13.09-10.49.98-6.23-1.52-12.42-3.91-18.27-19.41-47.65-33.99-97.27-43.42-147.85-1.04-5.57-2.02-11.15-2.96-16.74-5.31-31.3-9.7-62.81-18.79-93.19ZM593.17,736.36v-7.73s2.86,0,2.86,0l2.91,3.81-5.77,3.91ZM597.91,757.77c-.65-3.27-1.33-6.4-.86-9.76,6.21,4.58,6.18,14.39,5.77,21.3-2.53-.8-4.44-9.16-4.91-11.53ZM688.11,1048.35c2.79-.46,2.62,3.36,3.28,5.39,2.82,8.73,4.63,18.51,6.37,27.53l-9.65-32.92ZM697.8,1083.23l5.83,12.55,3.82,14.56c-6.8-6.03-7.88-18.56-9.65-27.12ZM361.1,609.56c1.42-.79,39.78-26.27,33.37-26.5-53.03-1.93-114.11,14.28-165.91,25.63-56.85,12.45-112.51,29.77-168.08,47.07-15.25,4.75-53.75,11.46-56.94,31.31,43.52-10.87,87.12-21.76,131.52-28.13,79.97-11.47,158.03-9.65,234.22-41.12-2.66-2.69-5.33-5.38-7.99-8.07-.06-.06-.13-.13-.19-.19ZM307.11,602.42c-3.48.35-6.93.42-10.4.23l21.29-3.84c-.24,2.74-8.69,3.39-10.89,3.61ZM345.15,602.65c-2.19-1,5.35-4.29,7.73-3.84,2.19,1-5.35,4.29-7.73,3.84ZM343.19,604.59h-3.86v-1.9h3.86v1.9ZM331.56,608.46h-7.73v-1.9h7.73v1.9ZM230.8,614.27l-11.6,1.94v-1.9s11.6-1.94,11.6-1.94v1.9ZM207.59,621.11c-15.23,4.26-31.31,6.23-46.52,10.61.84-3.21,7.89-4.86,10.75-5.69,14.76-4.32,30.58-5.67,45.42-9.77-.37,3.02-7.11,4.15-9.65,4.86ZM316.06,627.84h-5.79v-1.9h5.79v1.9ZM219.18,641.4h-9.67v-1.9h9.67v1.9ZM144.03,650.55l-27.52,4.42,52.3-11.59-24.77,7.17ZM114.55,656.9h-5.79v-1.9h5.79v1.9ZM597.63,395.06c2.65-3.76,3.71-8.37,4.69-12.86,26.45-120.87,34.02-242.25,35.31-365.6.04-3.37,5.1-15.25-.91-16.55-3.6-.78-7.67,8.27-8.26,11.08-5.23,25.28-6.74,51.23-14.21,75.97-7.01,23.24-17.95,45.18-21.8,69.34-4.15,26.05-.01,52.62.31,78.99.37,30.95-4.6,61.95-14.63,91.23-9.52,27.81-8.03,43.77-5.61,72.11,3.53,2.76,8.13,3.81,12.57,3.32,4.93-.54,9.67-2.97,12.54-7.04ZM616.42,108.54v-3.86h1.9v3.86h-1.9ZM614.48,122.1v-9.67h1.9v9.67h-1.9ZM622.23,130.85l3.84-18.42-1.94,30.98-1.9-12.57ZM598.29,149.54c.49-2.5,1.41-9.67,4.52-9.98-1.42,6.23.19,17.54-5.77,21.31-.53-3.91.51-7.55,1.25-11.32ZM619.3,168.63l3.02,4.83-3.96,4.84.94-9.68ZM603.08,215.85c-.66-8.15-2.49-21.34,5.55-25.92l-1.94,38.74c-2.54-.91-3.41-10.35-3.61-12.83ZM624.17,203.49v-7.73h1.9v7.73h-1.9ZM620.29,232.55v-5.79h1.9v5.79h-1.9ZM591.23,333.31v-3.86h1.9v3.86h-1.9ZM574.73,358.52c.22-2.23.13-9.87,2.9-9.68l-1.94,15.48c-3.79.4-1.16-3.77-.95-5.79ZM587.36,387.57v-3.86h1.9v3.86h-1.9ZM157.21,225.75c-10.12-9.15-25.2-17.14-34.02-26.05-6.11-6.17-8.33-14.88-16.32-18.62-5.6-2.22-3.69,19.51-3.08,20.46,1.36,2.11,6.77,3.15,9.64,5.97,7.49,7.35,8.59,20.68,20.48,21.26,22.37,39.73,66.92,74.67,103.71,106.44,32.27,27.87,56.03,44.85,91.53,67.8,18.72,12.1,42.86,31.18,61.85,40.42,4.81,2.34,9.61,4.47,15.14,4.26l1.91-5.83c12.23,1.51,10.65,13.1,22.31,11.59,1.66-1.49-6.9-13.25-8.19-16.06-1.14-2.49,1.18-5.27-1.43-8.06-2.06-2.2-7.62-4.33-10.68-6.92-33.38-28.33-64.08-55.22-101.13-79.08-18.27-11.76-41.13-21.88-58.64-34.36-12.08-8.61-20.9-20.61-32.14-29.87-10.62-8.76-24.63-16.49-35.07-25.99-9.26-8.42-16.55-18.93-25.89-27.37ZM128.13,217.05v-3.86s3.86,3.86,3.86,3.86h-3.86ZM172.66,268.44l-9.64-12.62c10.9,7.53,20.75,16.74,29.04,27.11l-19.4-14.49ZM228.88,306.22l15.5,11.59c-6.53-.32-12.17-6.45-15.5-11.59ZM277.32,354.66c2.43-1.29,6.75,3.1,5.81,3.84-2.43,1.29-6.75-3.1-5.81-3.84ZM331.56,393.37h-3.86v-1.9h3.86v1.9ZM333.51,395.35c11.29,4.96,22.42,12.48,31,21.28-11.13-4.91-22.26-12.92-31-21.28ZM372.25,422.44h-3.86v-1.9h3.86v1.9ZM383.88,430.19h-3.86v-1.9h3.86v1.9ZM405.2,428.29c2.43-1.29,6.75,3.1,5.81,3.84-2.43,1.29-6.75-3.1-5.81-3.84ZM415.87,439.89l-2.9-2.93v-2.87s3.85,0,3.85,0l-.95,5.79ZM928.03,156.68c-24.49,22.91-48.98,45.83-73.47,68.74-39.5,36.95-79.1,74.02-114.62,114.89-18.18,20.91-35.31,42.75-50.59,65.88-9.68,14.65-27.05,31.97-2.34,32.18,46.65.4,104.51-86.09,129.58-118.94,28.09-36.82,51.19-77.34,80.65-113.07,12.82-15.54,40.72-31.11,42.83-51.96-4.07-1.7-8.64-.88-12.03,2.29ZM883.77,215.12c.64,3.49-2.62,6.35-5.77,7.75-.64-3.49,2.62-6.35,5.77-7.75ZM812.12,290.69c-.64-3.67,2.26-6.45,5.79-5.79l-5.79,5.79ZM815.95,306.2c-1.86,7.89-9.13,14.83-15.46,19.38,1.86-7.89,9.13-14.83,15.46-19.38ZM726.89,365.35c5.22-6.36,11.21-12.98,17.37-18.46-1.24,5.07-6.39,10.28-9.72,14.49-4.92,6.22-11.07,13.65-17.37,18.45,1.24-4.95,6.42-10.46,9.72-14.48ZM752.04,367.24l3.85-2.92v3.86s-3.85-.95-3.85-.95ZM693.92,414.72c11.04-.63.78,12.51-1.95,9.67l1.95-9.67ZM411.63,751.7c-21.42,21.22-39.18,45.75-55.84,70.77-33.61,50.47-62.36,105.15-106.21,147.88-3.33,3.24-6.75,6.42-9.59,10.1-3.57,4.62-31.73,49.76-36.39,47.53l3.98,1.91-3.88,10.69c3.62.75,4.69-1.8,6.62-4.02,27.18-31.28,59.75-55.34,84.83-88.87,24.07-32.18,44.53-66.99,70.66-97.64,24.96-29.28,54.81-54.35,77.9-85.23,19.41-25.95,23.5-40.94,23.48-69.03v-.09c-16.54,5.87-42.11,42.69-55.56,56.01ZM420.68,759.62c.85,3.63-2.02,4.61-3.85,6.79-5.16,6.12-13.99,15.47-21.32,18.38l25.17-25.17ZM710.36,651.13c.63.41,11.79,18.36,15.45,22.01,11.25,11.22,24.01,21.25,36.02,31.65,25.49,22.08,51.24,43.86,76.31,66.43,51.54,46.39,120.53,59.25,178.03,95.33,6.62,4.16,18.3,16.51,24.44,18.23,2.31.61,4.17.9,6.07-.55-7.96-27.75-63.83-52.71-86.3-68.79-37.4-26.77-74.88-53.43-112.43-79.98-28.12-19.88-58.89-49.84-90.36-63.59-6.3-2.76-12.08-4.82-17.8-6.93-9.31-3.44-18.45-6.98-29.43-13.8ZM773.36,693.76c3.66.12,8.42,2.14,9.68,5.78-2.66.46-11.34-5-9.68-5.78ZM864.4,782.86h-3.86v-1.9h3.86v1.9ZM1099.06,457.7c-74.41,2.71-148.53,13.3-220.74,31.46-32.31,8.12-78.5,14.73-106.74,32.87-46.66,29.97,68.55,5.47,76.18,4.9,72.48-5.43,146.34-33.18,215.8-53.54,18.75-5.5,45.4-.3,60.98-9.56-7.11-6.29-16-6.47-25.49-6.13ZM1010.16,478.12l-10.11.52,13.04-5.33,16-.44-18.94,5.25ZM908.99,507.7c1.55-3.93,9.87-4.57,13.54-5.78-1.62,3.96-9.88,4.57-13.54,5.78ZM893.47,507.7h-5.79v-1.9h5.79v1.9ZM872.17,511.58c1.29-4.01,10.14-3.36,13.54-3.84-1.31,3.73-10.23,2.68-13.54,3.84ZM861.78,513.78c-3.62.72-7.14,2.06-10.92,1.67-.49-3.08,3.77-2.04,6.15-2.52,3.75-.76,7.37-1.89,11.27-1.32.46,3.34-3.95,1.67-6.5,2.17ZM767.54,534.83v-1.9c4.64-.21,9.73-4.09,11.62,1.9h-11.62ZM78.72,472.81c15.32-1.3,32.95,9.09,48.52,9.74,32.13,1.34,68.85-10.32,96.89-25.12,2.12-1.12,5.4-1.55,4.74-4.91-9.03-8.67-14.53.86-21.19,3.96-16.19,7.55-41.47,15.77-59.19,15.99-7.37.09-18.76-4.56-27.16-5.04-4.93-.28-10.37,2.48-17.31,1.41-6.23-.96-9.46-5.6-17.54-5.86-11.64-.38-22.29,8.37-32.68,7.81-3.99-.21-27.04-6.89-32.32-8.54-6.13-1.91-12.35-9.45-21.24-6.84-1.73,12.64,5.91,8.3,13.65,10.55,9.65,2.81,19.35,5.91,28.95,8.84-4.36,7.1-18.78,5.4-19.35,15.47,2.55,2.26,45.85-16.66,55.22-17.46ZM404.27,71.77c-17.72,16.56-19.53,51.15-1.73,66.89,10.34,9.14,23.48,14.85,33.07,24.77,15.4,15.93,18.99,39.65,20.42,61.76,1.37,21.15,10.59,43.31,11.65,63.19-1.39-26.04-2.78-52.09-4.17-78.13-.6-11.31-1.3-22.99-6.33-33.15-5.07-10.25-14.05-17.92-22.78-25.31-8.73-7.39-17.69-15.09-22.72-25.36-6.5-13.27-2.36-26.62,5.77-37-1.51-2.31-4.56-3.57-6.59-.97-6.37,8.18-4.6,20.28-3.49,30.51.52,4.83,2,10.17,3.64,14.75-2.98,3.02-12.67-14.66-13.17-16.87-3.65-16.2,12.55-31.63,13.16-47.05-3.3-.41-4.31-.3-6.74,1.96ZM834.27,949.62c-3.16-15.75-1.26-24.97-13.58-38.74-8.85-9.9-43.51-24.96-43.42-35.7.04-5.84,7.55-21.13,3.35-26.01-6.15-7.14-19.4,1.01-20.38,11.03-.4,4.14,1.05,8.22,2.56,12.09,5.04,12.9,11.96,26.36,24.46,32.31,6.05,2.87,12.95,3.73,18.77,7.04,11.97,6.81,16.19,21.89,17.82,35.57.92,7.71,1.47,15.79,5.51,22.42,5.81,9.52,17.81,13.8,28.95,13.41,11.59-.41,24.15-4.08,32.82-11.48-24.63,1.53-50.32,10.64-56.86-21.93ZM771.42,873.94c.33-5.44-2.64-15.54,5.79-15.48-1.82,3.46.76,16.81-5.79,15.48ZM476.39,925.08s-.04.02-.06.03c-9.89,5.44-17.3,24.98-14.33,35.46,2.63,9.29,11.39,15.36,16.55,23.51,7.48,11.83,6.81,26.98,4.48,40.77-3.49,20.67-18.07,44.26-18.41,63.2-.04,2.45,15.51-14.47,16.46-15.97,4.35-6.8,6.61-18.16,8.71-25.88,5.6-20.63,9.39-43.17-1.81-62.75-5.08-8.89-12.97-16.47-15.26-26.45-2.29-9.98,5.76-23.04,15.54-20.01-1.2,3.74-1.44,7.79-.69,11.65,4.18-3.76,6.15-9.82,4.96-15.32-.33-1.53-.87-3.16-.27-4.6.15-.37.25-.72.3-1.06.71-4.94-9.57-6.21-16.16-2.61ZM228.81,773.11c-2.07.21-4.13.42-6.2.63,3.54,4.17,3.2,10.69.34,15.35-2.86,4.66-7.74,7.74-12.76,9.91-7.17,3.1-14.98,4.68-22.79,4.61-11.59-.1-23.13-3.77-34.62-2.2-12.69,1.73-23.84,9.81-31.83,19.82-9.05,11.33-20.72,29.41-17.54,43.21,11.83-3.06,18.01-25.21,27.16-35.01,9.79-10.48,23.05-18.35,37.36-19.09,10.3-.54,20.66,2.58,30.86,1.08,14.56-2.15,42.25-17.14,37.29-34.91,0-.01,0-.02,0-.03-6.33,3.16-6.22-3.04-7.19-3.35-.02,0-.05-.01-.08-.01ZM746.62,88.6c-6.2,21.05,7.01,41.17-2.33,64.45-6.61,16.48-16.96,31.16-25.13,46.92.96-1.85,6.87,3.05,7.1,3.79,16.04-20.2,29.62-48.05,30.19-74.24.23-10.38-1.64-20.78-.56-31.11,1.23-11.78,25.91-30.02,25.22-36.12,0-.07-.02-.15-.03-.23-7.47-2.24-33.11,21.91-34.47,26.53ZM946.59,330.23c-6.95.87-14.05,1.21-20.63,3.6-16.3,5.93-38.55,26.45-42.16,44.04.84-9.66,31.45-30.42,39.11-33.46,11.33-4.49,23.54-6.17,35.54-8.3,23.47-4.16,51.05-11.08,66.4-30.45-27.92.66-50.81,21.12-78.25,24.56ZM904.04,619.2c7.11.33,13.26-1.59,20.29-2.62,7.32-1.08,14.76-.76,22.15-.3,20.85,1.3,41.59,3.76,62.19,7.25,10.55,1.79,36.8,5.43,36.67-5.42-2.62.19-4.48,1.26-6.94,2.24-5.86,2.33-12.4-.01-18.41-1.91-23.29-7.36-48.09-8.02-72.51-8.61-8.95-.22-20.07-2.18-29.25-.34-5.89,1.18-10.98,3.93-14.19,9.71ZM893.5,726.68c-.64,3.67,2.26,6.45,5.79,5.79l-5.79-5.79ZM691.95,13.6c-.74-.94-5.13,3.38-3.84,5.81.74.94,5.13-3.38,3.84-5.81ZM769.49,654.99v3.86s3.86,0,3.86,0l-3.86-3.86ZM657.11,453.46v3.86s3.86,0,3.86,0l-3.86-3.86ZM953.52,707.32h-1.9v3.86h1.9v-3.86Z"/>
</svg>